<svg width="874" height="1031" viewBox="0 0 874 1031" fill="none" xmlns="http://www.w3.org/2000/svg">
<path d="M326.593 1030.56C502.83 1030.56 645.698 1024.92 645.698 1017.96C645.698 1010.99 502.83 1005.35 326.593 1005.35C150.356 1005.35 7.48782 1010.99 7.48782 1017.96C7.48782 1024.92 150.356 1030.56 326.593 1030.56Z" fill="#A9ADAF"/>
<path d="M483.546 960.827C483.546 960.827 513.478 995.841 559.065 999.158C559.065 999.158 576.077 1017.43 526.941 1013.22C477.804 1009.01 476.699 1012.21 471.228 1000.56L469.967 1008.86L442.46 1007.29C442.46 1007.29 439.842 982.514 443.799 969.071L483.546 960.827Z" fill="url(#paint0_linear)"/>
<path d="M181.628 143.84H183.102L169.252 161.9C169.252 161.9 144.538 165.78 94.9362 191.483C94.9362 191.483 46.2072 328.96 38.9328 368.164C38.9328 368.164 50.5719 396.35 74.7812 386.961C98.9905 377.572 154.587 356.331 154.587 356.331C154.587 356.331 180.813 397.417 186.808 412.587C192.802 427.756 201.55 471.694 204.906 480.287C204.906 480.287 309.193 483.818 372.432 464.924L442.945 393.014C442.945 393.014 487.445 389.561 460.035 310.085L347.233 158.66L262.675 151.56L248.825 142.036C248.825 142.036 248.184 171.657 245.119 180.503C241.668 183.753 237.115 185.576 232.375 185.605C227.04 185.857 220.018 184.421 211.25 179.184C211.191 179.184 175.324 157.768 181.628 143.84Z" fill="url(#paint1_linear)"/>
<path d="M202.637 473.828C202.637 473.828 141.919 678.947 125.625 739.238C125.625 739.238 36.3916 905.89 16.9931 967.403C16.9931 967.403 36.5274 990.953 52.2014 992.621L192.258 765.93L299.067 580.752C299.067 580.752 356.603 622.983 388.629 647.444C420.656 671.906 462.227 715.514 462.227 715.514L442.286 969.032L490.782 968.78L543.333 696.619L380.637 460.617C380.637 460.617 341.414 476.951 202.637 473.828Z" fill="url(#paint2_linear)"/>
<path d="M243.8 25.6254C243.8 25.6254 268.572 58.1955 269.154 74.3738C269.736 90.5522 282.035 109.466 272.316 116.333C262.597 123.2 254.857 129.155 246.865 126.847L248.592 179.223C248.592 179.223 230.415 209.989 180.057 152.666L193.772 103.433C193.772 103.433 168.321 99.3203 176.313 69.369C184.305 39.4178 229.717 2.03685 243.8 25.6254Z" fill="url(#paint3_linear)"/>
<path opacity="0.3" d="M227.583 118.195C227.583 118.195 216.759 182.346 241.162 185.702C241.162 185.702 249.794 183.762 249.271 175.285C248.747 166.808 246.865 126.789 246.865 126.789L227.583 118.195Z" fill="url(#paint4_linear)"/>
<path d="M193.772 103.355C193.772 103.355 172.666 108.03 162.734 87.041C152.802 66.0519 162.54 45.1015 168.903 40.7368C168.903 40.7368 174.955 6.75067 205.061 1.12511C235.168 -4.50045 243.975 13.8699 251.618 2.5606C251.618 2.5606 261.472 13.4238 252.956 38.7C252.956 38.7 246.109 25.897 238.873 25.121C231.637 24.3451 217.263 22.8708 196.759 48.9036C196.759 48.9036 193.636 51.9686 191.657 52.0268C191.657 52.0268 201.803 65.4505 200.386 79.1847C200.386 79.1847 189.019 66.4398 179.494 74.4902C171.483 81.1827 182.346 100.678 193.772 103.355Z" fill="url(#paint5_linear)"/>
<path d="M224.576 211.444L232.336 185.547C232.336 185.547 187.157 175.382 183.161 142.579L167.933 160.678L224.576 211.444Z" fill="url(#paint6_linear)"/>
<path d="M259.94 204.169L238.912 184.286C238.912 184.286 250.551 181.609 247.37 139.184L260.405 150.513C260.405 150.513 267.331 187.836 259.94 204.169Z" fill="url(#paint7_linear)"/>
<path d="M82.2108 457.805L99.0875 482.596L132.492 465.894C132.492 465.894 118.176 444.245 178.757 387.155C239.339 330.065 246.361 251.017 250.241 205.624L235.071 204.402C235.071 204.402 224.285 291.171 199.669 323.955C142.948 399.376 76.9926 417.766 82.2108 457.805Z" fill="url(#paint8_linear)"/>
<path d="M154.587 356.331L264.945 308.688C264.945 308.688 258.951 286.477 264.44 275.168C264.44 275.168 123.471 295.187 103.142 303.877C103.142 303.877 54.6456 313.286 49.2722 330.725L38.9328 368.164C38.9328 368.164 49.6602 389.774 62.6959 388.959C75.7317 388.145 154.587 356.331 154.587 356.331Z" fill="url(#paint9_linear)"/>
<path d="M251.075 277.398C251.075 277.398 243.684 302.015 255.187 312.549L265.779 309.328C265.779 309.328 258.776 286.458 266.109 274.625L251.075 277.398Z" fill="#EFEFEF"/>
<path d="M416.486 350.22C416.486 350.22 431.849 337.534 453.925 370.298C453.925 370.298 458.949 391.326 466.999 375.962C466.999 375.962 457.3 337.534 433.13 341.53L416.486 350.22Z" fill="#EFEFEF"/>
<path d="M228.049 202.326L241.259 213.771L250.202 205.682L253.131 198.253L238.931 184.189L232.316 185.605L228.049 202.326Z" fill="url(#paint10_linear)"/>
<path d="M411.248 336.331C411.248 336.331 454.759 451.616 701.663 321.433L724.417 395.012L719.995 416.544C719.995 416.544 343.722 517.94 411.248 336.331Z" fill="url(#paint11_linear)"/>
<path d="M653.186 100.989L663.952 192.666C663.952 192.666 543.992 170.629 452.509 239.455C357.456 310.9 409.832 483.042 696.018 334.042L720.053 416.544C720.053 416.544 321.065 618.017 289.464 344.886C257.864 71.755 653.186 100.989 653.186 100.989Z" fill="url(#paint12_linear)"/>
<path d="M264.576 277.399C268.929 274.542 272.722 270.913 275.769 266.691L280.793 259.649L305.41 258.233L325.119 280.056L323.625 305.1C323.625 305.1 318.62 308.165 316.971 303.315L314.45 320.774C314.45 320.774 307.389 322.927 307.311 316.894C306.966 311.6 306.181 306.344 304.964 301.181L291.967 291.21C291.967 291.21 279.164 314.003 267.079 309.154C262.708 299.149 261.826 287.965 264.576 277.399Z" fill="url(#paint13_linear)"/>
<path d="M298.659 281.938L316.855 300.735L316.448 283.781L304.033 271.695" stroke="#E9D4C6" stroke-width="0.5"/>
<path d="M420.443 350.279L397.96 357.146L393.789 389.386C393.789 389.386 402.596 391.985 404.75 372.955L420.443 350.279Z" fill="url(#paint14_linear)"/>
<path d="M419.783 349.677L402.732 361.413L406.437 379.609L410.317 397.068C410.317 397.068 416.912 397.747 415.807 384.944L415.322 368.707L424.652 393.421C424.652 393.421 434.585 394.721 427.31 371.016L438.949 368.707C438.949 368.707 450.724 372.354 452.645 369.309C452.567 369.25 433.11 340.793 419.783 349.677Z" fill="url(#paint15_linear)"/>
<path d="M653.826 100.368L664.651 192.666C633.376 188.879 601.751 189.016 570.51 193.073L552.741 102.288C586.33 98.9333 620.134 98.291 653.826 100.368Z" fill="url(#paint16_linear)"/>
<path d="M695.979 334.042C695.979 334.042 646.823 357.475 634.874 362.403L662.032 442.519L720.305 417.068L695.979 334.042Z" fill="url(#paint17_linear)"/>
<path d="M702.051 321.084L725.116 395.031L720.208 417.009L695.417 335.109L634.971 362.829L637.978 350.802L702.051 321.084Z" fill="url(#paint18_linear)"/>
<path d="M55.6349 973.94C55.6349 973.94 64.888 998.809 76.4301 1002.17C87.9722 1005.52 115.964 1011.86 110.067 1022.88L56.4496 1022.01C56.4496 1022.01 36.6826 1017.33 32.3179 1011.34C29.3245 1007.03 26.678 1002.49 24.4033 997.762L18.4674 1009.94L0 998.15C0 998.15 12.0465 965.172 19.6119 963.232L55.6349 973.94Z" fill="url(#paint19_linear)"/>
<path d="M765.018 359.726L808.762 365.759L822.884 348.494L873.728 346.38L815.959 335.051L806.027 351.152L765.018 359.726Z" fill="#CC9E49"/>
<path d="M792.749 97.0895L748.326 105.974L738.627 124.538L689.219 142.288L748.656 133.326L754.534 117.031L792.749 97.0895Z" fill="#CC9E49"/>
<defs>
<linearGradient id="paint0_linear" x1="476.061" y1="939.028" x2="446.351" y2="1013.79" gradientUnits="userSpaceOnUse">
<stop stop-color="#5A4B47"/>
<stop offset="0.99" stop-color="#2B2422"/>
</linearGradient>
<linearGradient id="paint1_linear" x1="18.894" y1="459.637" x2="438.997" y2="529.575" gradientUnits="userSpaceOnUse">
<stop offset="0.01" stop-color="#FCF5F4"/>
<stop offset="0.23" stop-color="#F6F0F0"/>
<stop offset="0.52" stop-color="#E5E3E4"/>
<stop offset="0.86" stop-color="#CACED1"/>
<stop offset="1" stop-color="#BCC3C7"/>
</linearGradient>
<linearGradient id="paint2_linear" x1="18.5674" y1="957.947" x2="511.787" y2="1007.75" gradientUnits="userSpaceOnUse">
<stop offset="0.01" stop-color="#4C5C7E"/>
<stop offset="0.36" stop-color="#445371"/>
<stop offset="1" stop-color="#303B4F"/>
</linearGradient>
<linearGradient id="paint3_linear" x1="169.63" y1="183.132" x2="273.233" y2="186.958" gradientUnits="userSpaceOnUse">
<stop stop-color="#D2937C"/>
<stop offset="0.19" stop-color="#D79D81"/>
<stop offset="0.67" stop-color="#E1AF8B"/>
<stop offset="1" stop-color="#E5B68F"/>
</linearGradient>
<linearGradient id="paint4_linear" x1="223.419" y1="189.642" x2="251.142" y2="190.006" gradientUnits="userSpaceOnUse">
<stop stop-color="#935E50"/>
<stop offset="0.99" stop-color="#D2937C"/>
</linearGradient>
<linearGradient id="paint5_linear" x1="155.894" y1="96.0418" x2="248.418" y2="104.544" gradientUnits="userSpaceOnUse">
<stop stop-color="#6E5D57"/>
<stop offset="0.99" stop-color="#392E2A"/>
</linearGradient>
<linearGradient id="paint6_linear" x1="163.416" y1="208.616" x2="229.755" y2="214.602" gradientUnits="userSpaceOnUse">
<stop offset="0.01" stop-color="white"/>
<stop offset="0.19" stop-color="#F2F3F4"/>
<stop offset="0.54" stop-color="#D0D4D8"/>
<stop offset="1" stop-color="#9AA4AB"/>
</linearGradient>
<linearGradient id="paint7_linear" x1="183.82" y1="213.472" x2="208.398" y2="213.472" gradientUnits="userSpaceOnUse">
<stop offset="0.01" stop-color="white"/>
<stop offset="0.19" stop-color="#F2F3F4"/>
<stop offset="0.54" stop-color="#D0D4D8"/>
<stop offset="1" stop-color="#9AA4AB"/>
</linearGradient>
<linearGradient id="paint8_linear" x1="90.9046" y1="451.838" x2="231.448" y2="457.146" gradientUnits="userSpaceOnUse">
<stop stop-color="#8B4F4A"/>
<stop offset="0.43" stop-color="#7E4743"/>
<stop offset="1" stop-color="#663836"/>
</linearGradient>
<linearGradient id="paint9_linear" x1="213.706" y1="200.219" x2="19.615" y2="416.03" gradientUnits="userSpaceOnUse">
<stop stop-color="#BCC3C7"/>
<stop offset="0.13" stop-color="#CBCFD2"/>
<stop offset="0.4" stop-color="#E6E4E4"/>
<stop offset="0.63" stop-color="#F6F1F0"/>
<stop offset="0.82" stop-color="#FCF5F4"/>
</linearGradient>
<linearGradient id="paint10_linear" x1="174.858" y1="223.847" x2="199.378" y2="223.847" gradientUnits="userSpaceOnUse">
<stop offset="0.01" stop-color="#8B4F4A"/>
<stop offset="0.43" stop-color="#7E4743"/>
<stop offset="1" stop-color="#663836"/>
</linearGradient>
<linearGradient id="paint11_linear" x1="361.006" y1="423.885" x2="591.462" y2="585.225" gradientUnits="userSpaceOnUse">
<stop stop-color="#663836"/>
<stop offset="0.48" stop-color="#501F1E"/>
<stop offset="1" stop-color="#330000"/>
</linearGradient>
<linearGradient id="paint12_linear" x1="185.631" y1="220.204" x2="386.761" y2="599.684" gradientUnits="userSpaceOnUse">
<stop offset="0.01" stop-color="#B5534C"/>
<stop offset="0.37" stop-color="#A84E47"/>
<stop offset="1" stop-color="#88413B"/>
</linearGradient>
<linearGradient id="paint13_linear" x1="218.311" y1="323.988" x2="280.463" y2="323.988" gradientUnits="userSpaceOnUse">
<stop stop-color="#D2937C"/>
<stop offset="0.19" stop-color="#D79D81"/>
<stop offset="0.67" stop-color="#E1AF8B"/>
<stop offset="1" stop-color="#E5B68F"/>
</linearGradient>
<linearGradient id="paint14_linear" x1="358.93" y1="378.739" x2="381.394" y2="378.739" gradientUnits="userSpaceOnUse">
<stop stop-color="#D2937C"/>
<stop offset="0.19" stop-color="#D79D81"/>
<stop offset="0.67" stop-color="#E1AF8B"/>
<stop offset="1" stop-color="#E5B68F"/>
</linearGradient>
<linearGradient id="paint15_linear" x1="364.925" y1="388.489" x2="415.302" y2="388.489" gradientUnits="userSpaceOnUse">
<stop stop-color="#D2937C"/>
<stop offset="0.19" stop-color="#D79D81"/>
<stop offset="0.67" stop-color="#E1AF8B"/>
<stop offset="1" stop-color="#E5B68F"/>
</linearGradient>
<linearGradient id="paint16_linear" x1="560.999" y1="195.56" x2="669.247" y2="186.926" gradientUnits="userSpaceOnUse">
<stop stop-color="#BCC3C7"/>
<stop offset="0.65" stop-color="#E9E6E7"/>
<stop offset="1" stop-color="#FCF5F4"/>
</linearGradient>
<linearGradient id="paint17_linear" x1="656.387" y1="445.079" x2="724.527" y2="426.31" gradientUnits="userSpaceOnUse">
<stop stop-color="#BCC3C7"/>
<stop offset="1" stop-color="#FCF5F4"/>
</linearGradient>
<linearGradient id="paint18_linear" x1="630.601" y1="410.406" x2="723.169" y2="418.839" gradientUnits="userSpaceOnUse">
<stop stop-color="#9AA4AB"/>
<stop offset="1" stop-color="white"/>
</linearGradient>
<linearGradient id="paint19_linear" x1="-2.01959" y1="1021.8" x2="108.874" y2="1029.62" gradientUnits="userSpaceOnUse">
<stop stop-color="#5A4B47"/>
<stop offset="0.99" stop-color="#2B2422"/>
</linearGradient>
</defs>
</svg>
