<svg width="1440" height="288" viewBox="0 0 1440 288" fill="none" xmlns="http://www.w3.org/2000/svg">
<rect width="288" height="288" fill="#A59061"/>
<rect x="288" width="288" height="288" fill="white"/>
<rect x="576" width="288" height="288" fill="#A59061"/>
<rect x="864" width="288" height="288" fill="white"/>
<rect x="1152" width="288" height="288" fill="#A59061"/>
<path fill-rule="evenodd" clip-rule="evenodd" d="M1332.23 44H1215V244H1254.38V165.792H1318.45C1326.25 165.01 1335.35 170.626 1335.35 179.229C1335.98 192.884 1336.94 206.511 1337.91 220.137C1338.47 228.078 1339.03 236.019 1339.53 243.964H1377C1375.54 233.865 1375.42 223.626 1375.31 213.399C1375.14 198.857 1374.98 184.337 1370.94 170.271C1367.72 158.859 1355.89 155.502 1345.78 152.635C1344.77 152.349 1343.78 152.069 1342.82 151.785C1345.56 150.327 1348.56 149.322 1351.55 148.318C1357.33 146.384 1363.08 144.455 1366.91 139.308C1375.34 128.572 1375.97 114.245 1375.97 101.163C1375.97 100.428 1375.96 99.6903 1375.95 98.9492C1375.84 84.2699 1375.72 68.4454 1366.52 56.2289C1358.8 45.5642 1344.35 44 1332.23 44ZM1254.38 134.757V76.8475C1264.14 76.9984 1273.91 76.9164 1283.68 76.8343C1299.22 76.7037 1314.78 76.573 1330.36 77.3807C1338.47 83.1575 1338.47 93.7976 1338.47 103.253C1338.47 105.144 1338.47 106.987 1338.54 108.735C1338.51 109.151 1338.49 109.577 1338.47 110.012C1338 119.565 1337.31 133.546 1325.22 134.26C1310.46 135.014 1295.71 134.896 1280.99 134.778C1272.11 134.708 1263.24 134.637 1254.38 134.757Z" fill="white"/>
<path fill-rule="evenodd" clip-rule="evenodd" d="M180.971 44H63V244H102.716V165.819H167.209H176.086C185.806 165.993 195.475 164.379 204.607 161.058C209.044 159.708 212.978 157.073 215.909 153.488C224.358 142.756 225 114.22 225 101.143C224.993 100.406 224.987 99.6656 224.982 98.9222C224.868 84.2503 224.746 68.4347 215.517 56.2246C207.709 45.5636 193.163 44 180.971 44ZM102.609 134.725V76.8358C112.432 76.9867 122.26 76.9047 132.093 76.8226C147.742 76.6921 163.405 76.5614 179.081 77.3689C187.236 83.1327 187.226 93.7398 187.218 103.178C187.216 105.087 187.215 106.948 187.281 108.712C187.259 109.128 187.238 109.556 187.216 109.992C186.742 119.541 186.049 133.514 173.912 134.227C159.076 134.981 144.227 134.864 129.398 134.746C120.458 134.675 111.526 134.605 102.609 134.725Z" fill="white"/>
<path d="M438.095 244C460.146 242.714 472.122 242.107 491.268 230.179C509.769 217.786 513.606 193.821 514 173.25V44H473.878V173.786C473.878 183.536 471.476 195.214 461.724 199.929C447.382 206.464 447.382 205.214 433.362 205.571H430.745C416.618 205.214 416.833 206.464 402.348 199.929C392.596 195.357 390.014 183.536 390.193 173.786V44H350V173.214C350.394 193.786 354.231 217.75 372.732 230.143C391.914 242.071 403.89 242.679 425.941 243.964L438.095 244Z" fill="#A59061"/>
<path d="M1073 175.857H1037V205.325H982.644C982.644 162.117 982.644 87.2084 982.644 44H943C943 87.2084 943 165.604 943 208.813V244C972.278 244 1043.58 244 1072.82 244C1073 232.422 1072.82 217.461 1072.82 205.639L1073 175.857Z" fill="#A59061"/>
<path d="M785 175.857H748.978V205.325H694.911C694.911 162.117 694.911 87.2084 694.911 44H655C655 87.2084 655 165.604 655 208.813V244C684.259 244 755.601 244 784.895 244C785.07 232.422 784.895 217.461 784.895 205.639L785 175.857Z" fill="white"/>
</svg>
