<svg width="107" height="39" viewBox="0 0 107 39" fill="none" xmlns="http://www.w3.org/2000/svg">
<path fill-rule="evenodd" clip-rule="evenodd" d="M84.7089 0.010989C84.7861 -0.028149 84.8161 0.0447165 84.8438 0.11225C84.8548 0.139111 84.8655 0.165128 84.8787 0.182919L89.58 10.2877C90.0298 11.2603 90.4841 12.2318 90.9386 13.2038L90.939 13.2047C91.6933 14.8177 92.4482 16.4322 93.1851 18.0558C92.8013 18.0558 92.4175 18.0571 92.0337 18.0584H92.0334C91.0741 18.0616 90.1147 18.0647 89.1554 18.048C89.0056 17.6883 88.8526 17.3285 88.6993 16.968C88.513 16.5298 88.3262 16.0905 88.1441 15.6488C87.8335 15.6149 87.517 15.62 87.2001 15.6251C87.005 15.6282 86.8097 15.6313 86.6156 15.6253C85.8879 15.6318 85.1589 15.6289 84.4291 15.6261C83.386 15.6221 82.3413 15.618 81.2967 15.641C81.1742 15.9493 81.0495 16.2564 80.9247 16.5637C80.7268 17.051 80.5288 17.5388 80.3394 18.0324C80.0402 18.0715 79.7379 18.0647 79.4364 18.058C79.2557 18.054 79.0752 18.05 78.8959 18.0558C78.5723 18.0499 78.2486 18.053 77.9254 18.0561C77.4006 18.0612 76.8768 18.0662 76.3561 18.0324C78.12 14.244 79.8746 10.4525 81.6298 6.65987L81.6308 6.65773L81.6314 6.65628L81.6323 6.65437L81.6334 6.65199L81.6347 6.64915L81.6354 6.6477L81.6363 6.64579L81.6371 6.64411L81.6375 6.64314L81.638 6.64217L81.6384 6.64119L81.6391 6.63975L81.6398 6.63831L81.6404 6.63687L81.6413 6.63496C82.663 4.42723 83.6849 2.21911 84.7089 0.010989ZM84.6934 7.51338C84.4247 8.16937 84.1501 8.82302 83.8756 9.47659C83.4405 10.5126 83.0055 11.5485 82.5937 12.5931C83.4046 12.6021 84.2156 12.6008 85.028 12.5995H85.0281H85.0282H85.0283H85.0284H85.0285H85.0285H85.0286H85.0287H85.0288H85.0289H85.029H85.0291H85.0292H85.0293H85.0294H85.0295H85.0296C85.6396 12.5986 86.2504 12.5976 86.8627 12.6009L86.9013 12.5697C86.1757 10.8895 85.4578 9.20142 84.7475 7.51338H84.6934ZM26.7489 1.30828C25.0892 0.409554 23.1361 0.081324 21.2756 0.378294C18.8516 0.745599 16.6284 2.23045 15.3006 4.31705C14.1813 6.04417 13.6871 8.17766 13.8878 10.233C14.0731 12.3274 14.9995 14.3515 16.4894 15.8129C17.8482 17.1649 19.6623 18.0246 21.5458 18.2356C23.5067 18.47 25.5447 18.0714 27.2353 17.032C28.8487 16.0552 30.1225 14.5234 30.8095 12.7572C31.6742 10.5378 31.6664 7.96665 30.7478 5.76283C29.968 3.8716 28.5399 2.26952 26.7489 1.30828ZM21.5844 3.96538C20.2103 4.26235 18.9983 5.1767 18.2804 6.39584C17.6319 7.46649 17.3617 8.76378 17.5161 10.0064C17.6705 11.2802 18.2804 12.4994 19.2223 13.3668C20.0483 14.1327 21.1213 14.6172 22.2407 14.7032C23.4527 14.8048 24.6956 14.4375 25.6605 13.695C26.695 12.9214 27.4206 11.7569 27.6908 10.4831C27.961 9.27957 27.7989 7.98228 27.2509 6.87255C26.7027 5.7472 25.7687 4.80158 24.6339 4.29361C23.6842 3.85597 22.5957 3.74656 21.5844 3.96538ZM3.74903 0.516417C2.49815 0.511979 1.24908 0.507547 0 0.526779V18.0558C0.404287 18.0558 0.807715 18.0567 1.21086 18.0576H1.21105H1.21124H1.21143H1.21162H1.21181H1.212H1.21219H1.21238H1.21257H1.21276H1.21295H1.21314H1.21333H1.21351C2.01805 18.0593 2.82146 18.061 3.62828 18.0558C3.63137 17.39 3.62952 16.7241 3.62767 16.0583C3.62489 15.0595 3.62211 14.0608 3.636 13.062C4.58546 13.0698 5.53506 13.0698 6.48459 13.062C7.83555 13.0464 9.17107 12.4837 10.1437 11.5303C11.3094 10.4049 11.9578 8.80286 12.0583 7.18515C12.1663 5.68468 11.842 4.12168 10.9697 2.87909C10.2981 1.90222 9.28686 1.15979 8.15978 0.800304C7.49588 0.581484 6.79338 0.503334 6.09861 0.518964C5.31444 0.521971 4.53141 0.519193 3.74908 0.516417H3.74908H3.74908H3.74907H3.74907H3.74906H3.74906H3.74906H3.74905H3.74905H3.74904H3.74904H3.74903H3.74903H3.74903ZM3.65144 4.01227L3.62828 4.05916C3.62309 5.25688 3.62482 6.4546 3.62655 7.65463V7.65488V7.65512V7.65536V7.65561V7.65585V7.65609V7.65633V7.65658V7.65683V7.65707V7.65732V7.65756L3.62655 7.65781C3.62742 8.25764 3.62828 8.85804 3.62828 9.45932C3.63084 9.49817 3.62916 9.53874 3.62746 9.57989C3.62402 9.6629 3.62048 9.74825 3.65144 9.82662C4.10618 9.81384 4.56091 9.815 5.01565 9.81616H5.01574C5.39471 9.81713 5.77368 9.8181 6.15264 9.81099C6.73935 9.78755 7.30281 9.48276 7.68116 9.02949C8.19838 8.41992 8.44533 7.59935 8.47629 6.80222C8.49945 6.07543 8.29102 5.30956 7.78923 4.77032C7.36465 4.29361 6.7317 4.0279 6.09089 4.02008C5.74354 4.01673 5.39478 4.01769 5.04582 4.01865C4.58043 4.01992 4.11467 4.0212 3.65144 4.01227ZM33.928 1.54897V1.54917V1.54937V1.54958V1.54978V1.54998V1.55018V1.55038V1.55059V1.55079V1.551V1.5512V1.55141C33.9311 1.76416 33.9342 1.97777 33.9283 2.19137C33.925 4.44719 33.926 6.70301 33.9269 8.95944V8.95985V8.96025V8.96066V8.96107V8.96147V8.96188V8.96229V8.96269V8.9631V8.9635V8.96391V8.96432V8.96732C33.9281 11.9848 33.9294 15.0034 33.9205 18.0246L33.9591 18.0558C34.7568 18.061 35.5545 18.0593 36.3522 18.0575C36.7511 18.0567 37.15 18.0558 37.5488 18.0558C37.5642 16.399 37.5566 14.7423 37.5488 13.0777C38.0809 13.0584 38.613 13.0629 39.1451 13.0673C39.4777 13.0701 39.8102 13.0729 40.1427 13.0698C40.9687 13.0855 41.8025 12.9214 42.5512 12.5775C43.6166 12.093 44.5044 11.2411 45.0834 10.2252C45.8939 8.8263 46.1563 7.14608 45.9325 5.55182C45.7395 4.1842 45.1065 2.87128 44.0798 1.94911C43.053 1.00349 41.6712 0.518964 40.2971 0.518964C38.887 0.513754 37.4768 0.51549 36.0667 0.517227H36.0666C35.3616 0.518095 34.6565 0.518964 33.9515 0.518964C33.918 0.857527 33.923 1.20208 33.928 1.54891V1.54897ZM37.5566 4.02008C37.5566 4.66352 37.5557 5.30695 37.5549 5.95039V5.95251C37.5531 7.23867 37.5514 8.52483 37.5566 9.81099C38.0963 9.8214 38.636 9.81795 39.178 9.81448H39.178H39.178H39.1781H39.1781H39.1781H39.1782H39.1782H39.1782H39.1783H39.1783H39.1783L39.1788 9.81447H39.1789H39.179H39.1791H39.1791H39.1792H39.1793H39.1793H39.1794H39.1795H39.1795C39.451 9.81274 39.7231 9.81099 39.9961 9.81099C40.5673 9.81099 41.1231 9.5531 41.5168 9.13109C42.0804 8.52933 42.3582 7.69313 42.3968 6.87255C42.4354 6.13795 42.2424 5.35645 41.7406 4.79377C41.3083 4.29361 40.6445 4.02008 39.9883 4.02008H37.5566ZM50.063 0.515054C49.4543 0.513101 48.8466 0.511151 48.2407 0.518964C48.233 4.17638 48.233 7.8338 48.2407 11.4912C48.2485 13.7341 49.4296 15.9379 51.2976 17.1493C53.7215 18.7748 57.1337 18.6654 59.442 16.8757C60.8161 15.8285 61.7656 14.2343 62.0358 12.515C62.1318 11.9742 62.1298 11.4192 62.1278 10.8684C62.1273 10.7108 62.1267 10.5536 62.1284 10.3971V0.550224L62.0744 0.511149C61.555 0.517847 61.0342 0.515934 60.5132 0.51402C59.8184 0.511468 59.1233 0.508915 58.4307 0.526779V11.2568C58.4307 11.921 58.2841 12.6009 57.9367 13.1793C57.5738 13.8123 56.9717 14.3046 56.2769 14.5391C55.2888 14.8751 54.1308 14.7501 53.2739 14.1171C52.5947 13.6325 52.1546 12.851 52.0079 12.0305C51.9308 11.6463 51.934 11.2567 51.9372 10.8662C51.9379 10.788 51.9385 10.7098 51.9385 10.6316V0.550224L51.8922 0.511149C51.2821 0.518966 50.6721 0.517009 50.063 0.515054ZM65.0621 0.518964C65.575 0.515614 66.0864 0.516572 66.5976 0.517529C67.2791 0.518804 67.9603 0.52008 68.644 0.511149L68.6826 0.565854C68.6826 1.73743 68.6821 2.90949 68.6816 4.08191V4.08299V4.08408V4.08516V4.08625V4.08735V4.08844V4.08953V4.09062V4.09172V4.09681C68.6802 7.63527 68.6787 11.177 68.6904 14.7188H75.0206C75.0566 15.4536 75.0515 16.1988 75.0463 16.9429V16.9433V16.9437V16.9442V16.9446V16.9451V16.9455V16.9459V16.9464V16.9468C75.0437 17.3172 75.0412 17.6874 75.0437 18.0558H65.0621C65.0543 12.2102 65.0467 6.36458 65.0621 0.518964ZM98.9292 0.517225C97.5173 0.515489 96.1077 0.513756 94.6982 0.518964C94.6982 2.47401 94.6973 4.42905 94.6964 6.38409C94.6947 10.2747 94.693 14.1652 94.6981 18.0558C95.1311 18.053 95.5641 18.0552 95.9967 18.0574C96.7751 18.0614 97.5523 18.0653 98.3264 18.0402C98.3187 16.2974 98.3187 14.5469 98.3342 12.8041C98.4822 12.8025 98.6309 12.7997 98.78 12.797C99.3306 12.7869 99.8856 12.7767 100.426 12.8198C100.889 13.6912 101.355 14.5606 101.82 15.43C102.285 16.2994 102.75 17.1688 103.213 18.0402C104.129 18.0686 105.048 18.0639 105.966 18.0593L105.966 18.0593C106.31 18.0576 106.653 18.0558 106.996 18.0558C107.017 17.9388 106.956 17.8471 106.895 17.7562L106.895 17.7561C106.866 17.7134 106.838 17.6709 106.818 17.626C106.349 16.8402 105.879 16.0563 105.409 15.2725L105.405 15.266L105.399 15.2545C104.938 14.4853 104.477 13.716 104.016 12.9448C103.963 12.8417 103.901 12.7435 103.839 12.6453C103.745 12.4981 103.652 12.3509 103.591 12.1868C104.232 11.8038 104.857 11.3427 105.336 10.7488C106.486 9.37335 106.926 7.48212 106.733 5.70031C106.594 4.23109 105.923 2.79313 104.796 1.8397C103.761 0.948789 102.395 0.518964 101.052 0.518964C100.343 0.518964 99.636 0.518094 98.9292 0.517225ZM98.365 4.02008L98.3264 4.05916C98.3296 4.79191 98.3277 5.52466 98.3259 6.25691C98.3231 7.35212 98.3204 8.4462 98.3342 9.53747C99.137 9.54528 99.9399 9.54528 100.743 9.53747C101.368 9.54528 101.986 9.26394 102.395 8.79504C102.982 8.13077 103.213 7.2086 103.167 6.33332C103.128 5.62997 102.819 4.91099 102.248 4.48898C101.793 4.15294 101.221 4.01227 100.666 4.02008H98.365ZM55.9528 20.3222L55.9064 20.3456C55.9142 23.3612 55.9122 26.3768 55.9103 29.3934V29.3964C55.9084 32.4062 55.9065 35.4169 55.9142 38.4296C56.5115 38.4335 57.1088 38.4315 57.7061 38.4296C58.3054 38.4276 58.9046 38.4256 59.5039 38.4296C59.4996 36.6404 59.4817 34.8512 59.4637 33.0619C59.4487 31.5689 59.4337 30.0758 59.4267 28.5827C59.5121 28.6115 59.5766 28.6786 59.6386 28.7432C59.6606 28.7662 59.6823 28.7888 59.7046 28.8092L70.4272 38.914C70.4504 38.9375 70.489 38.9766 70.5044 39H70.5276C70.5586 32.9668 70.5894 26.9258 70.6125 20.8927C69.416 20.8848 68.2117 20.8848 67.0151 20.8848L66.9842 20.9474C66.9876 22.2996 66.9866 23.6519 66.9857 25.0042C66.9845 26.8013 66.9832 28.5985 66.992 30.3957C66.7433 30.2009 66.5089 29.9801 66.2748 29.7597C66.1238 29.6175 65.973 29.4755 65.8186 29.3407C64.1742 27.8361 62.5297 26.3335 60.8852 24.831C59.2411 23.3287 57.5969 21.8264 55.9528 20.3222ZM6.36108 21.2834C7.54992 20.7052 8.90088 20.5566 10.1978 20.6895C11.9193 20.8536 13.5637 21.6351 14.8065 22.8464C14.8065 22.8581 14.8046 22.8777 14.8026 22.8972C14.8007 22.9167 14.7988 22.9363 14.7988 22.948C14.5517 23.3035 14.3018 23.6576 14.0521 24.0114L14.0521 24.0115L14.052 24.0116L14.052 24.0117L14.0519 24.0117L14.0517 24.0121C13.7087 24.4982 13.3659 24.9839 13.0309 25.4723H12.9692C11.9347 24.4798 10.5452 23.8546 9.10931 23.8624C8.49945 23.8702 7.84327 24.0577 7.43412 24.5501C7.11761 24.9174 7.02498 25.4644 7.19481 25.9256C7.37237 26.4101 7.77379 26.7618 8.18294 27.0353C8.7598 27.4225 9.39778 27.6963 10.0348 27.9697C10.1821 28.0329 10.3293 28.0961 10.4757 28.1606C11.6182 28.6764 12.7376 29.3016 13.5868 30.2472C14.3047 31.0365 14.7369 32.0759 14.7755 33.1466C14.8527 34.483 14.3278 35.8272 13.4246 36.8041C12.4751 37.8512 11.1164 38.4608 9.72689 38.6171C7.4264 38.8671 4.94064 38.2185 3.26546 36.5461C3.23663 36.5121 3.20258 36.4803 3.16818 36.4482C3.09201 36.3772 3.01413 36.3045 2.98755 36.2023C3.22009 35.8295 3.45129 35.4554 3.68226 35.0816C4.00335 34.562 4.32402 34.0431 4.64729 33.5295C4.65622 33.5325 4.66857 33.5378 4.68216 33.5437L4.68219 33.5437L4.68229 33.5438C4.70392 33.5531 4.72866 33.5638 4.74765 33.5686C5.71262 34.397 6.83198 35.1316 8.11346 35.3113C8.84684 35.4051 9.67285 35.4129 10.3059 34.9596C10.9235 34.5298 11.0933 33.6155 10.7459 32.959C10.4989 32.4822 10.0588 32.1384 9.61109 31.8493C9.10178 31.5275 8.55161 31.2885 8.00142 31.0495C7.5092 30.8357 7.01698 30.6219 6.55399 30.3488C5.51183 29.7627 4.53914 28.95 4.00648 27.848C3.36581 26.5351 3.39669 24.9252 4.02971 23.6123C4.50834 22.5963 5.35751 21.7679 6.36108 21.2834ZM27.4823 20.9005C25.7531 20.4862 23.8926 20.5643 22.2175 21.174C20.1408 21.9164 18.3653 23.4716 17.3386 25.4409C16.4508 27.1211 16.1343 29.0827 16.4122 30.9583C16.7055 33.045 17.771 35.0065 19.3303 36.3976C21.4532 38.328 24.5411 39.1407 27.3125 38.3982C28.841 37.9997 30.2306 37.14 31.3422 36.0147C31.3422 35.9387 31.2947 35.8803 31.2482 35.8229L31.2481 35.8229C31.2324 35.8036 31.2168 35.7843 31.2032 35.7646C31.0786 35.5926 30.9543 35.4206 30.8301 35.2486C30.3618 34.6003 29.8943 33.9531 29.4123 33.3107C28.4704 34.3266 27.1657 35.0456 25.7762 35.1863C24.3635 35.2879 22.8659 34.8581 21.8159 33.8577C20.9513 33.0528 20.4496 31.9196 20.2874 30.7552C20.0867 29.411 20.2488 27.9887 20.905 26.793C21.4764 25.7145 22.4413 24.847 23.5761 24.425C24.8807 23.9404 26.3938 23.9952 27.6289 24.6517C28.1245 24.8954 28.5617 25.2508 28.9881 25.5974L29.1035 25.6911C29.4392 25.2261 29.7673 24.7572 30.0954 24.2884L30.0954 24.2883L30.0955 24.2882C30.4235 23.8193 30.7516 23.3504 31.0874 22.8855L31.0566 22.823C30.022 21.932 28.8178 21.2209 27.4823 20.9005ZM80.5093 20.7754C82.3929 20.4628 84.4078 20.6895 86.0984 21.6116C86.7314 21.9477 87.3181 22.3619 87.8508 22.8386C87.8618 22.9114 87.8174 22.9682 87.7742 23.0233L87.7742 23.0234L87.7741 23.0235C87.7571 23.0452 87.7403 23.0666 87.7272 23.0887C87.2106 23.827 86.694 24.5578 86.1774 25.2884L86.1773 25.2886L86.1773 25.2887L86.176 25.2905L86.1525 25.3238C86.1156 25.3668 86.085 25.4172 86.0541 25.468L86.0541 25.4681C86.0009 25.5557 85.947 25.6445 85.859 25.6989C85.1721 25.0268 84.3305 24.5032 83.4042 24.261C81.5669 23.7765 79.4671 24.4328 78.2628 25.9333C77.4522 26.9181 77.0276 28.1919 76.9968 29.4657C76.966 30.5285 77.1512 31.607 77.6298 32.5526C78.0235 33.3263 78.6256 33.9906 79.3667 34.4439C80.3008 35.0221 81.4279 35.2488 82.5164 35.1863C83.9291 35.0691 85.2492 34.3266 86.2141 33.3028C86.5151 33.734 86.8244 34.1568 87.1337 34.5796L87.1337 34.5798L87.1338 34.5799L87.1339 34.58C87.3402 34.862 87.5465 35.144 87.7503 35.4285C87.796 35.5007 87.849 35.5697 87.9021 35.6387C87.9925 35.7563 88.0828 35.8738 88.1363 36.0068C87.0864 37.0774 85.7818 37.9058 84.3459 38.3356C82.3542 38.9296 80.1541 38.7186 78.2782 37.8277C76.2864 36.8977 74.6576 35.194 73.8007 33.1465C72.7893 30.7629 72.8743 27.9417 74.0323 25.6363C75.2676 23.0965 77.7457 21.2287 80.5093 20.7754ZM34.7528 20.8839C34.4471 20.8843 34.1414 20.8848 33.8357 20.8848C33.8357 22.3527 33.8352 23.821 33.8347 25.2896V25.2904V25.2911V25.2942C33.8332 29.6727 33.8318 34.0533 33.8433 38.4295H37.4871C37.4871 32.584 37.4871 26.7383 37.4948 20.8927C36.5809 20.8809 35.6671 20.8824 34.7532 20.8839H34.7528ZM44.8441 20.8866L44.8512 20.8866H44.8529C47.5251 20.8883 50.1949 20.89 52.8649 20.8848L52.888 20.9395C52.888 21.3042 52.8889 21.6689 52.8898 22.0336C52.8915 22.763 52.8932 23.4924 52.888 24.2218C51.483 24.2258 50.078 24.2258 48.6731 24.2258C47.2681 24.2258 45.8631 24.2258 44.4581 24.2297C44.4503 25.4332 44.4503 26.6367 44.4581 27.8402C46.0067 27.8454 47.5518 27.8437 49.098 27.8419H49.0989C49.8725 27.8411 50.6465 27.8402 51.4213 27.8402L51.4444 27.9027C51.4411 28.3708 51.4421 28.8403 51.4431 29.3107V29.3112V29.3114C51.4443 29.9402 51.4456 30.5704 51.4367 31.2006C49.8879 31.2058 48.3424 31.2041 46.7959 31.2024C46.0223 31.2015 45.2483 31.2006 44.4735 31.2006C44.4404 32.1217 44.4467 33.0507 44.453 33.9792V33.9794C44.4556 34.3507 44.4581 34.7219 44.4581 35.0925C45.3906 35.0925 46.3232 35.0916 47.2558 35.0908L47.2681 35.0908C49.1414 35.089 51.0147 35.0873 52.888 35.0925C52.8932 35.7539 52.8915 36.4118 52.8898 37.0709C52.8889 37.4008 52.888 37.7311 52.888 38.0622C52.8855 38.1039 52.8872 38.1464 52.8889 38.189C52.8923 38.2741 52.8958 38.3592 52.8649 38.4373C49.8654 38.4256 46.8616 38.4271 43.8599 38.4285H43.8592C42.8594 38.429 41.8598 38.4295 40.8607 38.4295L40.8221 38.3825C40.8272 35.4126 40.8255 32.4391 40.8238 29.4668V29.4659C40.8229 27.9805 40.8221 26.4954 40.8221 25.0111C40.8287 24.4216 40.8268 23.8306 40.8249 23.24C40.8224 22.4528 40.8199 21.6663 40.8375 20.8848C42.1738 20.8848 43.5092 20.8857 44.8441 20.8866ZM102.881 20.8927C98.8592 20.8848 94.8295 20.877 90.8075 20.8927C90.8191 25.2877 90.8176 29.6828 90.8161 34.0778C90.8156 35.5284 90.8151 36.9789 90.8151 38.4294C91.8156 38.4294 92.816 38.4299 93.8163 38.4304C96.8375 38.4318 99.8576 38.4333 102.873 38.4215C102.877 37.8705 102.877 37.3175 102.877 36.7644C102.877 36.2117 102.877 35.6589 102.881 35.1081C102.85 35.1002 102.788 35.0924 102.758 35.0924H95.9565C95.7622 35.0865 95.5667 35.0896 95.3719 35.0927C95.0558 35.0978 94.7413 35.1028 94.4357 35.069C94.4445 34.3317 94.4433 33.5969 94.442 32.8618C94.441 32.3113 94.4401 31.7605 94.4434 31.2084C95.5369 31.1973 96.6337 31.2002 97.7308 31.203C98.965 31.2061 100.2 31.2093 101.43 31.1927C101.427 30.7456 101.429 30.2973 101.43 29.8492C101.433 29.1773 101.436 28.5059 101.422 27.8402C99.8775 27.8454 98.333 27.8437 96.7908 27.8419C96.0205 27.8411 95.2508 27.8402 94.482 27.8402L94.4357 27.8011L94.4357 27.7932C94.4434 26.608 94.4511 25.4306 94.4357 24.2531L94.482 24.2297C95.6831 24.223 96.8843 24.2249 98.0848 24.2268C99.6851 24.2293 101.284 24.2319 102.881 24.214C102.876 23.4736 102.878 22.7333 102.879 21.9952C102.88 21.627 102.881 21.2594 102.881 20.8927Z" fill="#808080"/>
</svg>
