<svg width="104" height="41" viewBox="0 0 104 41" fill="none" xmlns="http://www.w3.org/2000/svg">
<path fill-rule="evenodd" clip-rule="evenodd" d="M82.0884 6C81.8459 6 81.642 6.08385 81.5395 6.24785C81.4334 6.41733 81.4499 6.63553 81.5625 6.85633L84.2835 11.4989C84.288 11.508 84.288 11.5134 84.2835 11.5215L80.0075 18.9586C79.8959 19.1777 79.9014 19.3976 80.0075 19.5672C80.11 19.7303 80.2911 19.8377 80.5334 19.8377H84.5577C85.1595 19.8377 85.4496 19.4375 85.6553 19.0713C85.6553 19.0713 89.8371 11.782 90 11.4989C89.9834 11.4728 87.2332 6.74364 87.2332 6.74364C87.0328 6.39208 86.7301 6 86.1127 6H82.0884ZM64.3673 14.6768C58.1221 14.6768 54.6949 18.2682 54.6949 24.7734V31.6246C54.6949 37.8376 57.6959 41 63.6355 41C68.4383 41 72.3273 39.1494 72.5989 39.0167V26.7116C72.5989 26.3294 72.3237 26.058 71.9359 26.058H63.9785C63.5907 26.058 63.3153 26.3295 63.3153 26.7116V29.8668C63.3153 30.2489 63.5908 30.5203 63.9785 30.5203H67.6828C67.6983 30.5203 67.7057 30.5275 67.7057 30.5429V35.8616C67.7057 35.8733 67.6929 35.8806 67.6828 35.8842C67.6654 35.8914 65.9376 36.5378 63.7955 36.5378C60.9657 36.5378 59.5882 34.807 59.5882 31.2642V24.7736C59.5882 22.9319 59.9559 21.5777 60.7086 20.6492C61.5327 19.6333 62.7784 19.1393 64.5501 19.1393H65.3276C67.8995 19.1393 69.8861 19.7055 71.1584 20.1083C71.3559 20.1706 71.537 20.1381 71.6614 20.0407C71.7885 19.9416 71.8672 19.773 71.8672 19.5676V16.5476C71.8672 16.2059 71.6971 16.0139 71.1813 15.7588C70.5236 15.4344 68.6515 14.6771 65.4191 14.6771H64.3673V14.6768ZM0.433883 15.2176C0.517029 15.085 0.660635 15.0148 0.84546 15.0148V15.0147H5.30414C5.85386 15.0147 6.02947 15.3607 6.19596 15.6907C6.19687 15.6907 10.4033 23.3984 10.4033 23.3984L10.4033 23.3985C10.408 23.4067 10.4162 23.421 10.4262 23.421C10.4364 23.421 10.4435 23.4085 10.4481 23.4002L10.4492 23.3984L14.6565 15.6907C14.8559 15.2977 15.0379 15.0147 15.5483 15.0147H20.0301C20.2138 15.0147 20.3585 15.0849 20.4416 15.2175C20.4864 15.2888 20.5102 15.378 20.5102 15.4654C20.5102 15.5537 20.4863 15.6466 20.4416 15.7358L13.879 27.4776C13.877 27.4803 13.8779 27.4884 13.8785 27.4944C13.8788 27.4968 13.879 27.4989 13.879 27.5002C13.879 27.5015 13.8788 27.5035 13.8785 27.5058C13.8779 27.5117 13.877 27.5195 13.879 27.5227C13.879 27.5227 20.8064 39.8486 20.8074 39.8505C20.8523 39.9398 20.876 40.0326 20.876 40.121C20.876 40.2084 20.8531 40.2967 20.8074 40.3689C20.7251 40.5013 20.5806 40.5717 20.3959 40.5717H15.9141C15.4038 40.5717 15.2437 40.2887 15.0452 39.8957C15.0443 39.8947 10.4492 31.6019 10.4492 31.6019C10.4445 31.5929 10.4371 31.5794 10.4262 31.5794C10.4161 31.5794 10.4078 31.593 10.4033 31.6019L5.83016 39.8956C5.63075 40.2895 5.44876 40.5717 4.93834 40.5717H0.479456C0.294834 40.5717 0.150214 40.5013 0.0679801 40.3689C-0.02266 40.2255 -0.02266 40.0282 0.0679801 39.8505L6.97354 27.5227C6.9781 27.5146 6.9781 27.4858 6.97354 27.4777L0.433883 15.7359C0.344255 15.5593 0.343243 15.3609 0.433883 15.2176ZM24.1231 15.0148C23.7362 15.0148 23.4599 15.2871 23.4599 15.6684V39.9182C23.4599 40.2995 23.7362 40.5718 24.1231 40.5718H27.6672C28.0541 40.5718 28.3304 40.2995 28.3304 39.9182V15.6684C28.3304 15.2871 28.0541 15.0148 27.6672 15.0148H24.1231ZM32.9037 15.6684C32.9037 15.2871 33.2028 15.0148 33.5896 15.0148L33.5897 15.0149H37.271C37.8174 15.0149 37.9926 15.3578 38.1598 15.685L38.1629 15.6909C38.1629 15.6918 45.8458 30.2949 45.8458 30.2949C45.8522 30.3057 45.8797 30.2985 45.8916 30.2949C45.9035 30.2921 45.9145 30.285 45.9145 30.2724V15.6684C45.9145 15.2871 46.1907 15.0148 46.5776 15.0148H50.1218C50.5087 15.0148 50.7849 15.2871 50.7849 15.6684V39.9182C50.7849 40.2995 50.5087 40.5718 50.1218 40.5718H46.4176C45.93 40.5718 45.6839 40.2076 45.5257 39.8958C45.5257 39.8948 37.8427 25.2916 37.8427 25.2916C37.8421 25.2904 37.8415 25.289 37.8408 25.2877C37.8359 25.2774 37.8303 25.2659 37.8198 25.2691C37.8079 25.2719 37.797 25.279 37.797 25.2916V39.9182C37.797 40.2995 37.5207 40.5718 37.1338 40.5718H33.5896C33.2028 40.5718 32.9037 40.2995 32.9037 39.9182V15.6684Z" fill="#808080"/>
<path d="M99.2298 0.000203245C98.6171 0.000203245 98.3513 0.380272 98.1312 0.769284C98.1312 0.769284 89.291 16.1973 89 16.7039C89.015 16.7315 94.8307 27.231 94.8307 27.231C95.0341 27.5888 95.3484 28 95.9769 28H100.076C100.323 28 100.516 27.9082 100.62 27.7421C100.729 27.5696 100.727 27.3419 100.612 27.1181L94.827 16.7166C94.8214 16.7086 94.8214 16.698 94.827 16.69L103.912 0.881069C104.026 0.658109 104.029 0.430372 103.921 0.257918C103.816 0.0917653 103.622 0 103.375 0H99.2298V0.000203245Z" fill="#808080"/>
</svg>
