<svg width="104" height="61" viewBox="0 0 104 61" fill="none" xmlns="http://www.w3.org/2000/svg">
<path fill-rule="evenodd" clip-rule="evenodd" d="M27.472 53L27.2406 53.1203L26.7216 53.2399L26.4909 53.3602C26.3766 53.3841 26.2805 53.4079 26.1847 53.4317C26.0382 53.468 25.8923 53.5041 25.6831 53.5403V53.721H25.9139C26.3181 53.721 26.4335 53.8413 26.4335 54.1422V59.9774C26.4335 60.4585 26.2607 60.5794 25.6831 60.699V60.8797H28.2803V60.699C27.6454 60.6386 27.4726 60.4585 27.4726 59.8571V56.9103C27.9915 56.4286 28.3383 56.2485 28.7999 56.2485C29.3768 56.2485 29.6656 56.6093 29.6656 57.3309V59.7973C29.6656 60.4591 29.5502 60.6392 28.8573 60.6996V60.8803H31.3971V60.6996C30.8195 60.58 30.7047 60.4591 30.7047 59.9176V57.0904C30.7047 56.2485 30.0698 55.5867 29.204 55.5867C28.5117 55.5867 28.0495 55.8877 27.4726 56.5495V53H27.472ZM0.00059175 53.3004V53.4811C0.520148 53.5409 0.635539 53.6007 1.03911 54.0226L1.1545 54.1422V59.3755C1.1545 60.3382 0.86573 60.6386 0 60.6386V60.8797H2.82797V60.6386C1.96224 60.6386 1.67406 60.2778 1.67406 59.3755V54.6838L6.98383 60.9994H7.21461V54.804C7.21461 53.9017 7.44539 53.6007 8.19573 53.5403L8.36911 53.4805V53.2997H5.48315V53.4805L5.71393 53.5403C6.40628 53.6007 6.63766 53.9017 6.63766 54.6838V58.7747L2.07822 53.3004H0.00059175ZM12.6972 55.5861C11.0811 55.6465 10.0426 56.7296 10.0426 58.293C10.0426 59.8571 11.1965 61 12.6972 61C14.1978 61 15.3518 59.7973 15.3518 58.1734C15.3518 56.7296 14.2552 55.5867 12.7546 55.5867H12.6972V55.5861ZM11.1391 57.7521V57.8718C11.1965 59.5568 11.8894 60.6392 12.87 60.6386C13.7363 60.6386 14.2552 59.8571 14.2552 58.594C14.2552 57.0299 13.5629 55.9475 12.5238 55.9475C11.7161 55.9475 11.1391 56.6087 11.1391 57.7521ZM18.2377 55.5861L18.1223 55.6465L17.8336 55.7668L17.6028 55.8272L17.3146 55.9475L16.9104 56.0671L16.6217 56.1874H16.4489V56.428C16.6796 56.3675 16.7376 56.3675 16.9104 56.3675C17.1412 56.3675 17.3146 56.4878 17.3146 56.8492V60.0971C17.3146 60.398 17.0832 60.5788 16.6217 60.6386L16.4489 60.699V60.8797H19.3342V60.699C18.5839 60.699 18.2957 60.4585 18.2957 59.917V57.21C18.2957 57.0897 18.4685 56.8492 18.6419 56.608C18.7573 56.4273 19.0461 56.3077 19.1614 56.3077C19.2194 56.3077 19.2768 56.3675 19.2768 56.3675L19.7384 56.6685C19.7964 56.7289 19.8538 56.7289 19.9112 56.7289C20.2574 56.7289 20.4307 56.5482 20.4307 56.2479C20.4307 55.8266 20.2 55.5861 19.7384 55.5861C19.2768 55.5861 18.9307 55.8272 18.4111 56.4884L18.3531 56.6087L18.2957 55.6459L18.2377 55.5861ZM23.4639 54.5047C23.5311 54.4297 23.5922 54.3615 23.6629 54.2631V54.2637H23.7209V55.707H24.9328V56.0678H23.7209V59.497C23.7209 60.0983 23.9523 60.3993 24.3558 60.3993C24.5866 60.3993 24.8174 60.2784 25.0482 59.978L25.2216 60.0977C24.8754 60.6392 24.3558 61 23.7789 61C23.1439 61 22.6824 60.4591 22.6824 59.6172V56.0678H22.0474V55.9481L22.1054 55.8877C22.2492 55.7626 22.3731 55.6687 22.4729 55.593L22.473 55.5929L22.473 55.5929C22.6134 55.4864 22.7062 55.4161 22.7398 55.3462L23.0859 54.9854C23.2566 54.736 23.3667 54.6132 23.4639 54.5047ZM35.6671 55.5861C36.8796 55.5861 37.63 56.3681 37.7453 57.6917H33.9937C34.1096 59.3156 34.8014 60.1575 35.8985 60.1575C36.7062 60.1575 37.2258 59.8571 37.7453 58.9548L37.9761 59.0751C37.4566 60.2778 36.5328 60.9994 35.3789 60.9994C34.0516 60.9994 33.1279 59.9774 33.1279 58.4133C33.1279 56.7296 34.167 55.5861 35.6671 55.5861ZM34.051 57.3303L34.0511 57.3297H36.4749V57.21C36.3021 56.3077 36.0133 56.0067 35.3783 56.0067C34.6282 56.0067 34.1666 56.4278 34.0511 57.3297H34.051V57.3303ZM40.6887 55.6465L40.8615 55.5861L40.9183 55.6459V56.6087L41.0337 56.4884C41.4958 55.8272 41.8994 55.5861 42.3616 55.5861C42.7652 55.5861 43.0539 55.8266 43.0539 56.2479C43.0539 56.5482 42.8231 56.7289 42.535 56.7289C42.4196 56.7289 42.3622 56.7289 42.3042 56.6685L41.9 56.3675C41.8714 56.3675 41.8428 56.3526 41.8141 56.3377C41.7852 56.3227 41.7563 56.3077 41.7272 56.3077C41.6118 56.3077 41.3811 56.4273 41.2657 56.608C41.0923 56.8492 40.9195 57.0897 40.9195 57.21V59.917C40.9195 60.4585 41.2077 60.699 41.958 60.699V60.8797H39.0726V60.699L39.188 60.6386C39.7076 60.5788 39.881 60.398 39.881 60.0971V56.8492C39.881 56.4878 39.765 56.3675 39.4768 56.3675C39.3614 56.3675 39.3034 56.3675 39.0726 56.428V56.1874H39.188L39.4768 56.0671L39.9384 55.9475L40.1691 55.8272L40.4579 55.7668L40.6887 55.6465ZM46.3441 55.5861L46.1133 55.6465C45.3049 55.9475 45.1322 56.0073 44.6706 56.1276V56.3083C44.8434 56.2479 44.9014 56.2479 45.0168 56.2479C45.3055 56.2479 45.4209 56.428 45.4209 56.7894V60.0379C45.4209 60.4591 45.1901 60.6392 44.6706 60.699V60.8797H47.2678V60.699C46.6908 60.6386 46.46 60.5189 46.46 60.0971V56.9096C46.9216 56.428 47.3258 56.2479 47.6719 56.2479C48.1915 56.2479 48.5377 56.6087 48.5377 57.0897V59.917C48.5377 60.4585 48.3649 60.6386 47.7873 60.699V60.8797H50.3265V60.699C49.7496 60.6386 49.5762 60.4585 49.5762 59.917V57.0897C49.5762 56.2479 48.9412 55.5861 48.1909 55.5861C47.6134 55.5861 47.2098 55.7668 46.4021 56.4884V55.6465L46.3441 55.5861ZM52.4616 53.301H59.2702L59.3282 55.2259H59.0406C58.8673 54.4438 58.6939 54.1429 58.3471 53.9628C58.0589 53.7821 57.7701 53.7821 56.789 53.7821H56.5003V59.6172C56.5003 60.4591 56.6736 60.6392 57.6548 60.6392V60.8803H54.1344V60.6392C54.9428 60.6392 55.2315 60.3987 55.2315 59.8571V53.7814H55.1162C53.6741 53.7814 53.3847 53.8419 53.0959 54.2027C52.9237 54.3834 52.8077 54.6838 52.6923 55.2253H52.4036L52.4616 53.301ZM63.1965 55.5861C61.581 55.6465 60.5419 56.7296 60.5419 58.293C60.5419 59.8571 61.6964 61 63.1965 61C64.7546 61 65.8511 59.7973 65.9091 58.1734C65.9091 56.7296 64.7546 55.5867 63.2545 55.5867H63.1965V55.5861ZM61.6384 57.7521V57.8718C61.7538 59.5568 62.3888 60.6392 63.3699 60.6386C64.2356 60.6386 64.8126 59.8571 64.8126 58.594C64.8126 57.0299 64.0622 55.9475 63.0811 55.9475C62.2154 55.9475 61.6384 56.6087 61.6384 57.7521ZM69.8904 55.5861C68.2749 55.6465 67.2358 56.7296 67.2358 58.293C67.2358 59.8571 68.3903 61 69.8904 61C71.3916 61 72.545 59.7973 72.545 58.1734C72.545 56.7296 71.449 55.5867 69.9478 55.5867H69.8904V55.5861ZM68.3329 57.7521V57.8718C68.4483 59.5568 69.0826 60.6392 70.0643 60.6386C70.9295 60.6386 71.5076 59.8571 71.5076 58.594C71.5076 57.0299 70.7561 55.9475 69.7762 55.9475C68.9098 55.9475 68.3329 56.6087 68.3329 57.7521ZM75.7203 53.0604C75.2001 53.2405 74.3924 53.4212 73.8154 53.5409V53.7216H74.2202C74.5658 53.7216 74.7392 53.8419 74.7392 54.083V60.0379C74.7392 60.4591 74.4504 60.6392 73.8154 60.699V60.8797H76.7014V60.699C76.0091 60.6386 75.7777 60.5189 75.7777 59.917V53.0598H75.7203V53.0604ZM78.8938 60.3388C78.8948 60.0066 79.1532 59.7376 79.472 59.7369H79.5294C79.933 59.7369 80.2217 59.978 80.2217 60.3388C80.2217 60.6996 79.933 61 79.5874 61C79.1826 61 78.8938 60.6996 78.8938 60.3388ZM86.1085 59.0751C85.5895 59.8571 85.1273 60.1575 84.435 60.1575C83.3379 60.1575 82.5881 59.1947 82.5881 57.8718C82.5881 56.7289 83.2225 55.9475 84.2036 55.9475C84.5504 55.9475 84.7817 56.0671 84.896 56.3681L85.0113 56.8498C85.0693 57.0904 85.3001 57.2704 85.5315 57.2704C85.8771 57.2704 86.1085 57.0299 86.1085 56.79C86.1085 56.1282 85.3007 55.5867 84.2616 55.5867C82.7615 55.5867 81.607 56.8504 81.607 58.4139C81.607 59.9176 82.5881 61 83.916 61C84.896 61 85.7049 60.3388 86.2818 59.1954L86.1085 59.0751ZM88.3021 58.293C88.3021 56.7296 89.34 55.6465 90.9566 55.5861V55.5867H91.0146C92.5147 55.5867 93.6692 56.7296 93.6692 58.1734C93.6112 59.7973 92.5147 61 90.9566 61C89.4554 61 88.3021 59.8571 88.3021 58.293ZM89.3974 57.8718V57.7521C89.3974 56.6087 89.9755 55.9475 90.8407 55.9475C91.8218 55.9475 92.5721 57.0299 92.5721 58.594C92.5721 59.8571 91.9952 60.6386 91.1289 60.6386C90.1489 60.6392 89.5128 59.5568 89.3974 57.8718ZM96.3818 55.6465L96.612 55.5861L96.67 55.6471V56.489L96.7854 56.3687C97.7091 55.707 97.9979 55.5867 98.5168 55.5867C99.2092 55.5867 99.6134 55.8883 99.8447 56.5495C100.422 55.9481 101.056 55.5867 101.75 55.5867C102.442 55.5867 102.845 55.9481 103.076 56.6697C103.134 56.9103 103.134 57.1508 103.134 57.3309V60.0977C103.134 60.5195 103.366 60.6392 104 60.6996V60.8803H101.345V60.6996C101.403 60.6996 101.461 60.6996 101.461 60.6392C101.922 60.6392 102.153 60.4591 102.153 60.1581V57.1508C102.153 56.4884 101.864 56.188 101.229 56.188C100.71 56.188 100.364 56.3681 99.9601 56.9103V59.8571C99.9601 60.3987 100.19 60.699 100.71 60.699H100.826V60.8797H98.1133V60.699C98.6896 60.699 98.921 60.5189 98.921 60.0379V57.1502C98.921 56.5482 98.5742 56.1874 98.1133 56.1874C97.5813 56.1891 97.076 56.4304 96.7274 56.8492V60.0971C96.7274 60.5189 96.9588 60.699 97.4777 60.699H97.5357V60.8797H94.8811V60.699C95.4587 60.699 95.6889 60.5189 95.6889 60.0379V56.7894C95.6889 56.428 95.5741 56.2479 95.2853 56.2479C95.1693 56.2479 95.1119 56.2479 94.8805 56.3083V56.1276C95.3894 55.9975 95.8907 55.8369 96.3818 55.6465Z" fill="#808080"/>
<path d="M62.8461 13V18.6355H61V29.0172H62.9041V34L73 23.6189L62.8461 13Z" fill="#808080"/>
<path d="M50.2015 0L40 10.3084H45.3026V14.7511L55.2736 25V10.2489H60L50.2015 0Z" fill="#808080"/>
<path fill-rule="evenodd" clip-rule="evenodd" d="M36.2642 13L36.2056 18.1654H38.0718L38.0132 28.3237H36.3808L36.2642 32.9718L26 22.9288L36.2642 13ZM55.1014 33.2019V35.7269H60L49.5026 46L39.2965 35.6693H44.0204V35.6116H44.079L44.0204 21.207L55.1014 33.2019Z" fill="#808080"/>
<path d="M39.39 36.195V36L39 36.098L39.195 36.293L39.39 36.195Z" fill="#808080"/>
</svg>
