<svg width="68" height="87" viewBox="0 0 68 87" fill="none" xmlns="http://www.w3.org/2000/svg">
<path fill-rule="evenodd" clip-rule="evenodd" d="M14.7769 77.0342C15.1754 77.0342 15.3744 76.6284 15.3744 76.2211C15.3744 75.6111 13.9805 75.0011 12.5855 75C10.3945 75 9 76.6274 9 78.0511C9 80.1305 10.6152 80.6788 12.1073 81.1853C13.388 81.6201 14.578 82.024 14.578 83.3389C14.578 84.7626 13.7804 85.78 12.187 85.78C11.2782 85.78 10.6235 85.4343 10.1673 85.1934C9.92342 85.0646 9.73631 84.9658 9.59749 84.9658C9.19899 84.9658 9 85.1684 9 85.5758C9 86.3895 10.594 86.9995 12.187 86.9995C14.7769 86.9995 16.1714 85.1689 16.1714 83.3395C16.1714 81.0878 14.4621 80.4565 12.936 79.8929C11.7054 79.4385 10.594 79.028 10.594 77.8474C10.594 76.8311 11.3905 76.2211 12.3865 76.2211C13.3748 76.2211 13.8269 76.5339 14.1702 76.7714C14.3805 76.9169 14.55 77.0342 14.7769 77.0342ZM23.1439 79.0684C23.1439 78.4579 22.3474 77.8479 20.9529 77.8479C18.1634 77.8479 16.9684 80.0858 16.9684 82.5258C16.9684 84.9658 18.1639 86.9995 20.9529 86.9995C22.3474 86.9995 23.1439 86.3895 23.1439 85.9832C23.1439 85.5763 22.9449 85.3732 22.5459 85.3732C22.3917 85.3732 22.2674 85.4343 22.1151 85.5091C21.8742 85.6276 21.5631 85.7805 20.9529 85.7805C19.1599 85.7805 18.3629 83.95 18.3629 82.5263C18.3629 80.8984 19.1599 79.2721 20.9529 79.2721C21.5626 79.2721 21.8735 79.4245 22.1145 79.5427C22.267 79.6174 22.3914 79.6784 22.5459 79.6784C22.9449 79.6784 23.1439 79.2726 23.1439 79.0684ZM25.9329 86.1868C25.9329 86.7968 25.5344 87 25.1359 87C24.7379 87 24.3389 86.7968 24.3389 86.1868V78.6621C24.3389 78.2547 24.7379 77.8479 25.1359 77.8479C25.5344 77.8479 25.9329 78.2553 25.9329 78.6621V86.1868ZM26.1318 75.8142C26.1318 75.2053 25.7333 75.0011 25.1359 75.0011C24.7379 75.0011 24.3389 75.2047 24.3389 75.8142C24.3389 76.2211 24.7379 76.6284 25.1359 76.6284C25.7328 76.6284 26.1318 76.2216 26.1318 75.8142ZM28.5223 81.9163C28.5223 80.6958 29.3193 79.0684 31.1123 79.2726C32.7058 79.2726 33.3033 80.6963 33.3033 81.9163H28.5223ZM34.8968 82.3226C34.8968 82.7295 34.6978 83.1358 33.9008 83.1358V83.1363H28.5223C28.5223 84.5605 29.5183 85.7811 31.1123 85.7811C32.3992 85.7811 33.0208 85.2717 33.4609 84.911C33.702 84.7135 33.8886 84.5605 34.1003 84.5605C34.2987 84.5605 34.6978 84.7632 34.6978 85.1695C34.6978 85.9837 32.9048 87 31.1123 87C28.3233 87 27.1284 84.9663 27.1284 82.5263C27.1284 80.0858 28.5223 77.8479 31.1123 77.8479C33.5023 77.8479 34.8968 80.0858 34.8968 82.3226ZM36.0923 78.6621C36.0923 78.2547 36.2912 77.8479 36.6897 77.8479C37.2872 77.8479 37.4862 78.2553 37.4862 78.6621V79.0684C38.0837 78.2553 39.0802 77.8479 39.8772 77.8479C41.2717 77.8479 43.0647 78.8653 43.0647 81.3063V86.1868C43.0647 86.7968 42.6657 87 42.2682 87C41.8692 87 41.4707 86.7968 41.4707 86.1868V81.3063C41.4707 79.8826 40.4752 79.2726 39.4787 79.2726C38.4832 79.2726 37.4867 79.8826 37.4867 81.3063V86.1868C37.4867 86.7968 37.2878 87 36.6903 87C36.2912 87 36.0928 86.7968 36.0928 86.1868V78.6621H36.0923ZM50.6336 79.0684C50.6336 78.4579 49.8366 77.8479 48.2436 77.8479C45.6542 77.8479 44.2597 80.0858 44.2597 82.5258C44.2597 84.9658 45.6542 86.9995 48.2436 86.9995C49.8371 86.9995 50.6336 86.3895 50.6336 85.9832C50.6336 85.5763 50.4351 85.3732 50.0361 85.3732C49.8822 85.3732 49.7281 85.4342 49.5392 85.5091C49.2402 85.6276 48.8542 85.7805 48.2441 85.7805C46.4506 85.7805 45.8532 83.95 45.8532 82.5263C45.8532 80.8984 46.4512 79.2721 48.2441 79.2721C48.8053 79.2721 49.1137 79.4012 49.3828 79.5139C49.5911 79.6011 49.7759 79.6784 50.0361 79.6784C50.4346 79.6784 50.6336 79.2726 50.6336 79.0684ZM52.8256 81.9163C52.8256 80.6958 53.4231 79.0684 55.2166 79.2726C56.8096 79.2726 57.6066 80.6963 57.6066 81.9163H52.8256ZM59 82.3226C59 82.7295 58.801 83.1358 58.2035 83.1358V83.1363H52.8256C52.8256 84.5605 53.8211 85.7811 55.4151 85.7811C56.5514 85.7811 57.2081 85.2902 57.6885 84.9311C57.9657 84.7239 58.1843 84.5605 58.4025 84.5605C58.6025 84.5605 58.8015 84.7632 58.8015 85.1695C58.8015 85.9837 57.008 87 55.4151 87C52.6266 87 51.2311 84.9663 51.2311 82.5263C51.2311 80.0858 52.8251 77.8479 55.2161 77.8479C57.6055 77.8479 59 80.0858 59 82.3226Z" fill="#808080"/>
<path d="M68 34C68 52.7108 52.9114 68 33.9997 68C15.2896 68 0 52.7103 0 34C0 15.0887 15.2896 0 33.9997 0C52.9114 0 68 15.0887 68 34Z" fill="#808080"/>
<path fill-rule="evenodd" clip-rule="evenodd" d="M60.1802 38.6809C60.1802 39.478 59.9805 40.275 59.381 40.6738C61.7795 43.8642 62.5787 46.6547 61.5788 48.4501C59.7809 51.4398 52.5853 51.042 43.5907 47.8522C41.9914 57.4207 38.7932 64 34.9965 64C31.3979 64 28.2003 57.4201 26.4012 47.8522L26.3944 47.8544L26.3944 47.8544L26.3943 47.8544L26.3943 47.8545C24.5976 48.4516 22.8017 49.0485 21.2044 49.4463C21.0047 51.2406 19.4059 52.6361 17.6069 52.6361C16.4073 52.6361 15.2083 51.8391 14.6088 50.8418C11.0113 51.042 8.41262 50.4435 7.41328 48.6492C5.61426 45.4594 9.8118 39.2793 17.6069 32.9002C10.0115 26.7201 5.81444 20.5401 7.81312 17.3508C9.61162 14.1609 17.0068 14.7589 26.4012 18.1478C27.0013 15.1577 27.6008 12.3666 28.6001 9.97436C27.6008 9.37642 27.2009 8.37969 27.2009 7.1833C27.2009 5.18985 28.6006 3.79432 30.5988 3.79432C30.9986 3.79432 31.3985 3.79432 31.7983 3.99346C32.7976 2.79707 33.7975 2 34.997 2C38.7937 2 41.9919 8.57831 43.5912 18.1473C52.3851 14.9575 59.3805 14.5587 61.18 17.7485C62.9796 20.9384 59.1819 26.7196 51.7856 32.8997C52.356 33.3736 52.8813 33.8476 53.3827 34.3001L53.3827 34.3001C53.9358 34.7992 54.46 35.2721 54.9838 35.6902C55.3837 35.491 55.9837 35.2914 56.5832 35.2914C58.5819 35.2914 60.1802 36.8866 60.1802 38.6809ZM49.9871 31.5041C57.5815 25.7229 61.9792 20.3404 60.58 18.1473C59.381 15.7551 52.5858 16.9509 43.99 20.5396C44.3899 22.7322 44.5895 25.1244 44.5895 27.7163C46.5882 28.9127 48.3878 30.1086 49.9871 31.5041ZM39.1935 41.6711L39.1961 41.6695L39.1962 41.6695C40.1941 41.0721 41.1929 40.4742 41.9914 39.8773C41.9914 41.4719 41.7917 43.0661 41.592 44.4626C40.3925 43.8647 38.9939 43.2663 37.5936 42.6683C37.794 42.4688 38.0442 42.3191 38.2944 42.1694L38.2944 42.1694C38.5441 42.02 38.7939 41.8706 38.9939 41.6716H39.1935V41.6711ZM37.7943 39.478H37.994C39.3932 38.4812 40.7918 37.6836 42.1921 36.8855V29.1108C41.4901 28.711 40.839 28.3113 40.1879 27.9116L40.1878 27.9115L40.1878 27.9115C39.5401 27.5139 38.8924 27.1163 38.1947 26.7186C37.5945 26.4196 37.0442 26.0706 36.4939 25.7215C35.9445 25.3729 35.3951 25.0244 34.7958 24.7256L34.7769 24.7364L34.7768 24.7365C33.384 25.5305 31.992 26.3239 30.7984 27.1179C29.7991 27.5162 28.7998 28.1141 28.0001 28.7126C28.0001 29.4103 27.95 30.1081 27.9 30.8058C27.85 31.5036 27.7999 32.2014 27.7999 32.8991V33.0983C27.7999 33.7962 27.85 34.494 27.9 35.1916V35.1916V35.1917V35.1917V35.1917V35.1918V35.1918V35.1918V35.1919V35.1919V35.1919C27.9501 35.8896 28.0001 36.5871 28.0001 37.2848L30.9981 39.0792C32.3937 39.8747 33.5906 40.4716 34.7865 41.068L34.7958 41.0726C35.7926 40.6751 36.7883 40.0796 37.785 39.4835L37.7943 39.478ZM31.998 42.6678L31.9933 42.6702C30.7958 43.2673 29.5979 43.8647 28.4004 44.262C28.2008 43.0656 28.2008 41.6706 28.2008 40.4742C28.6006 40.6733 29.0005 40.873 29.6 41.2718H29.8001C30.5988 41.8702 31.1988 42.269 31.998 42.6678ZM25.4024 35.6902C25.2028 34.694 25.2028 33.8964 25.2028 33.0988V32.7005C25.2028 31.9029 25.2028 31.1053 25.4024 30.3083C24.5416 30.9215 23.6809 31.4593 22.8667 31.968C22.3574 32.2862 21.8664 32.5929 21.4051 32.8997C22.1534 33.5217 22.9797 34.066 23.8353 34.6297L23.8355 34.6298C24.3507 34.9692 24.8766 35.3156 25.4024 35.6902ZM28.2003 25.5232C28.2003 24.1277 28.2003 22.9318 28.3999 21.7355C29.5989 22.1342 30.7984 22.7322 31.9974 23.3301C31.5973 23.5298 31.1471 23.7793 30.6968 24.0289C30.2477 24.2778 29.7986 24.5268 29.3993 24.7262C29 25.1244 28.6001 25.3241 28.2003 25.5232ZM39.2535 22.5587C38.709 22.8223 38.1517 23.092 37.5942 23.3301L37.5988 23.3332C38.1978 23.7315 38.7952 24.1287 39.5939 24.5265C39.994 24.7261 40.3941 24.9755 40.794 25.2248L40.7941 25.2249C41.1934 25.4739 41.5926 25.7228 41.9919 25.922C41.9919 24.3274 41.7924 22.9328 41.5928 21.5377L41.5926 21.5363C40.8707 21.776 40.0766 22.1603 39.2535 22.5587ZM44.7902 30.7065C45.7891 31.5041 46.9886 32.3012 47.9884 32.8997L47.9841 32.9031C46.9857 33.6991 45.987 34.4952 44.7902 35.0928V33.0988V30.7065ZM30.5988 10.5718H30.1995C29.4975 13.3949 28.9636 16.257 28.6006 19.143C30.5988 19.9411 32.7976 20.9373 34.7963 21.9341C36.9952 20.7387 39.1935 19.7415 41.3919 18.9444C40.1923 9.37538 37.7943 2.79655 34.9965 2.79655C34.1963 2.79655 33.3971 3.39449 32.5975 4.39121C33.5968 4.98915 33.9966 5.9864 33.9966 7.18226C33.9966 9.17624 32.3978 10.5718 30.5988 10.5718ZM8.21296 17.7485C9.8118 15.3563 16.8072 16.5527 26.0019 20.5396L25.4024 27.1184C23.4426 28.3623 21.6417 29.7643 19.9999 31.0426L19.9999 31.0426L19.999 31.0433C19.7991 31.1989 19.6016 31.3527 19.4064 31.5041C11.6108 25.5232 7.01396 20.1408 8.21296 17.7485ZM17.6074 45.6585C19.006 45.6585 20.2056 46.4556 20.8051 47.4518C21.2321 47.2921 21.6733 47.1324 22.1251 46.9689C23.3648 46.5203 24.6832 46.0432 26.0014 45.4594L25.9866 45.2966C25.7918 43.1581 25.5966 41.0145 25.4019 38.6814C23.2036 37.2854 21.2049 35.8904 19.4059 34.4948C11.4112 40.4752 6.61412 45.8582 8.0133 48.4496C8.81246 49.646 11.0113 49.8446 14.209 49.2466V49.0475C14.209 47.2527 15.8084 45.6585 17.6074 45.6585ZM34.9965 63.4005C32.1976 63.4005 29.7991 56.622 28.6001 46.8539C30.5983 46.0568 32.7971 45.0595 34.7958 44.0633C36.9952 45.2597 39.1935 46.2559 41.3913 47.054C40.1923 56.622 37.7943 63.4005 34.9965 63.4005ZM43.99 45.4589C52.785 49.2466 59.5802 50.443 60.9793 48.0503C61.7795 46.6547 60.58 44.4621 58.181 41.8702C57.7811 42.0699 57.1822 42.2695 56.5827 42.2695C54.7831 42.2695 53.1848 40.6744 53.1848 38.6814C53.1848 38.2826 53.3845 37.6842 53.5841 37.2854C52.3851 36.2886 51.1856 35.2919 49.9871 34.4948C49.7866 34.6447 49.583 34.7977 49.3762 34.9531C47.9332 36.0374 46.3377 37.2362 44.5895 38.2826C44.5895 40.874 44.3904 43.2663 43.99 45.4589Z" fill="white"/>
<path d="M34.3999 30C32.6003 30 31 31.4417 31 33.5003C31 35.5589 32.5998 37 34.3999 37C36.3997 37 38 35.5589 38 33.5003C38 31.4417 36.3997 30 34.3999 30Z" fill="white"/>
</svg>
