<svg width="104" height="54" viewBox="0 0 104 54" fill="none" xmlns="http://www.w3.org/2000/svg">
<path fill-rule="evenodd" clip-rule="evenodd" d="M31.7898 28.1849H24.5709L25.3915 15.7153L20.7035 28.1849H14L24.6363 0H31.7692L30.9458 12.6407L35.7226 0H42.4267L31.7898 28.1849ZM15.8775 34.5807C15.8775 33.7369 16.5287 33.1587 17.3604 33.1587C18.1916 33.1587 18.8433 33.7369 18.8433 34.5807C18.8433 35.4212 18.1882 36 17.3604 36C16.5321 36 15.8775 35.4251 15.8775 34.5807ZM16.3275 34.5807C16.3275 35.1629 16.7674 35.5934 17.3604 35.5934C17.9457 35.5934 18.3928 35.1523 18.3928 34.5807C18.3928 34.0058 17.9496 33.5653 17.3604 33.5653C16.764 33.5653 16.3275 33.9991 16.3275 34.5807ZM43.2965 0L32.6607 28.1849H39.3642L50 0H43.2965Z" fill="#808080"/>
<path d="M13.3223 18.6411C4.00813 29.4537 -4.77808 43.8407 2.98273 50.4659C10.5029 56.8861 19.9027 53.0849 26.3119 50.5505C32.721 48.0161 103.562 17.606 103.562 17.606C104.245 17.2681 104.117 16.8456 103.263 17.0566C102.918 17.1418 26.1412 37.71 26.1412 37.71C16.3985 40.4136 5.28974 34.5213 13.3223 18.6411Z" fill="#808080"/>
<path fill-rule="evenodd" clip-rule="evenodd" d="M83.5273 0C82.7012 0 82.0545 0.571765 82.0545 1.40472C82.0545 2.23822 82.7051 2.80615 83.5273 2.80615C84.3494 2.80615 85 2.23438 85 1.40472C85.0005 0.571765 84.3538 0 83.5273 0ZM17.2218 33.9454C17.2218 34.228 17.0603 34.3333 16.8538 34.3432L17.2457 35H16.8022L16.4508 34.3569H16.3858V35H16V33.4894H16.5784C16.9809 33.4894 17.2218 33.581 17.2218 33.9454ZM16.3864 34.0985H16.6062C16.7405 34.0985 16.816 34.0644 16.816 33.9075C16.816 33.761 16.6856 33.7478 16.5718 33.7478H16.3864V34.0985ZM82.5014 1.40527C82.5014 1.98032 82.9383 2.40558 83.5273 2.40558C84.109 2.40558 84.5531 1.9699 84.5531 1.40527C84.5531 0.837344 84.1124 0.402211 83.5273 0.402211C82.9349 0.402211 82.5014 0.83076 82.5014 1.40527Z" fill="#808080"/>
<path fill-rule="evenodd" clip-rule="evenodd" d="M79.9166 4.66694L81.7246 0H61.1969L54.1485 8.40017L57.4026 0H50.5886L40 28H46.7276L51.2483 16.291L51.558 28L72.2006 27.9559L74.1657 22.5699H66.3173L68.896 15.7822H75.3644L77.3547 10.5639H70.8863L73.1038 4.66694H79.9166ZM84.9759 1.02643C84.9759 1.31063 84.8121 1.41658 84.6034 1.42652L85 2.08652H84.5512L84.1967 1.44031H84.1305V2.08652H83.7412V0.567847H84.3257C84.7319 0.567847 84.9759 0.660005 84.9759 1.02643ZM84.1305 1.18039H84.3527C84.4884 1.18039 84.5653 1.14618 84.5653 0.988904C84.5653 0.841562 84.4329 0.827766 84.3184 0.827766H84.1305V1.18039ZM57.8009 11.5396L58.2322 26.1331L67.9727 0.552947L57.8009 11.5396Z" fill="#808080"/>
</svg>
