<svg width="405" height="345" viewBox="0 0 405 345" fill="none" xmlns="http://www.w3.org/2000/svg">
<path d="M151.039 342.625H241.039" stroke="white" stroke-width="3"/>
<path d="M87.2892 269.25H305.289" stroke="white" stroke-width="3"/>
<path fill-rule="evenodd" clip-rule="evenodd" d="M190.956 286.083H201.623V275.416H190.956V286.083Z" stroke="#0085E7" stroke-width="3"/>
<path d="M325.289 231.75H378.289V104.25" stroke="white" stroke-width="3"/>
<path fill-rule="evenodd" clip-rule="evenodd" d="M102.789 255.75H289.289V107.25H102.789V255.75Z" stroke="white" stroke-width="3"/>
<path fill-rule="evenodd" clip-rule="evenodd" d="M289.289 155.25V255.75H102.789V155.25H87.2892V293.25H305.289V155.25H289.289Z" stroke="white" stroke-width="3"/>
<path fill-rule="evenodd" clip-rule="evenodd" d="M273.039 229.75C273.039 239.967 264.757 248.25 254.539 248.25C244.322 248.25 236.039 239.967 236.039 229.75C236.039 219.533 244.322 211.25 254.539 211.25C264.757 211.25 273.039 219.533 273.039 229.75Z" stroke="#0085E7" stroke-width="3"/>
<mask id="mask0" mask-type="alpha" maskUnits="userSpaceOnUse" x="0" y="0" width="405" height="345">
<path fill-rule="evenodd" clip-rule="evenodd" d="M0 344.125H404.039V0H0V344.125Z" fill="white"/>
</mask>
<g mask="url(#mask0)">
<path fill-rule="evenodd" clip-rule="evenodd" d="M118.539 227.25H171.039V174.75H118.539V227.25ZM121.539 224.25H168.039V177.75H121.539V224.25Z" fill="white"/>
<path d="M182.289 176.75H273.789" stroke="white" stroke-width="3"/>
<path d="M182.289 187.75H273.789" stroke="white" stroke-width="3"/>
<path d="M118.539 235H210.039" stroke="white" stroke-width="3"/>
<path d="M118.539 246H210.039" stroke="white" stroke-width="3"/>
<path d="M182.289 198.75H273.789" stroke="white" stroke-width="3"/>
<path d="M102.789 121.583H289.289" stroke="white" stroke-width="3"/>
<path d="M150.956 107.25V121.583" stroke="white" stroke-width="3"/>
<path fill-rule="evenodd" clip-rule="evenodd" d="M118.539 168H276.956V134.917H118.539V168Z" stroke="white" stroke-width="3"/>
<path d="M130.502 168V148.125" stroke="white" stroke-width="3"/>
<path d="M145.464 168V143.375" stroke="white" stroke-width="3"/>
<path d="M160.427 168V143.75" stroke="white" stroke-width="3"/>
<path d="M175.39 168V159.25" stroke="white" stroke-width="3"/>
<path d="M190.352 168V157.125" stroke="white" stroke-width="3"/>
<path d="M205.315 168V147.25" stroke="white" stroke-width="3"/>
<path d="M220.277 168V143.5" stroke="white" stroke-width="3"/>
<path d="M235.239 168V146.417" stroke="white" stroke-width="3"/>
<path d="M250.202 168V147.583" stroke="white" stroke-width="3"/>
<path d="M265.164 168V139.167" stroke="white" stroke-width="3"/>
<path fill-rule="evenodd" clip-rule="evenodd" d="M48.5568 212.07C48.5568 220.531 41.6988 227.39 33.2368 227.39C24.7758 227.39 17.9168 220.531 17.9168 212.07C17.9168 203.609 24.7758 196.75 33.2368 196.75C41.6988 196.75 48.5568 203.609 48.5568 212.07Z" stroke="white" stroke-width="3" stroke-dasharray="4.81 4.81"/>
<path fill-rule="evenodd" clip-rule="evenodd" d="M32.1398 316.339C32.1398 324.8 25.2818 331.659 16.8208 331.659C8.35879 331.659 1.49979 324.8 1.49979 316.339C1.49979 307.878 8.35879 301.019 16.8208 301.019C25.2818 301.019 32.1398 307.878 32.1398 316.339Z" stroke="white" stroke-width="3" stroke-dasharray="4.81 4.81"/>
<path fill-rule="evenodd" clip-rule="evenodd" d="M378.289 305.946C378.289 314.407 371.43 321.266 362.969 321.266C354.508 321.266 347.648 314.407 347.648 305.946C347.648 297.485 354.508 290.626 362.969 290.626C371.43 290.626 378.289 297.485 378.289 305.946Z" stroke="white" stroke-width="3" stroke-dasharray="4.81 4.81"/>
<path fill-rule="evenodd" clip-rule="evenodd" d="M171.352 342.625H220.727V293.25H171.352V342.625Z" stroke="white" stroke-width="3"/>
<path fill-rule="evenodd" clip-rule="evenodd" d="M34.6232 120.25C34.6232 125.957 29.9962 130.583 24.2892 130.583C18.5822 130.583 13.9562 125.957 13.9562 120.25C13.9562 114.543 18.5822 109.917 24.2892 109.917C29.9962 109.917 34.6232 114.543 34.6232 120.25Z" stroke="white" stroke-width="3"/>
<path fill-rule="evenodd" clip-rule="evenodd" d="M34.6232 120.25C34.6232 125.957 29.9962 130.583 24.2892 130.583C18.5822 130.583 13.9562 125.957 13.9562 120.25C13.9562 114.543 18.5822 109.917 24.2892 109.917C29.9962 109.917 34.6232 114.543 34.6232 120.25Z" stroke="white" stroke-width="3"/>
<path fill-rule="evenodd" clip-rule="evenodd" d="M44.3439 120.25C44.3439 118.17 44.0279 116.164 43.4399 114.277L46.0009 112.798C46.9229 112.266 47.2399 111.086 46.7069 110.164L44.2329 105.879C43.6999 104.957 42.5209 104.641 41.5989 105.173L39.0129 106.666C36.3009 103.728 32.7319 101.602 28.6919 100.695V97.7211C28.6919 96.6561 27.8279 95.7931 26.7639 95.7931H21.8159C20.7499 95.7931 19.8869 96.6561 19.8869 97.7211V100.695C15.8469 101.602 12.2789 103.728 9.56692 106.666L6.97992 105.173C6.05792 104.641 4.87792 104.957 4.34592 105.879L1.87192 110.164C1.33892 111.086 1.65592 112.266 2.57692 112.798L5.13991 114.277C4.55191 116.164 4.23492 118.17 4.23492 120.25C4.23492 122.33 4.55191 124.336 5.13991 126.223L2.57692 127.702C1.65592 128.234 1.33892 129.414 1.87192 130.336L4.34592 134.621C4.87792 135.543 6.05792 135.859 6.97992 135.327L9.56692 133.834C12.2789 136.772 15.8469 138.898 19.8869 139.805V142.779C19.8869 143.844 20.7499 144.707 21.8159 144.707H26.7639C27.8279 144.707 28.6919 143.844 28.6919 142.779V139.805C32.7319 138.898 36.3009 136.772 39.0129 133.834L41.5989 135.327C42.5209 135.859 43.6999 135.543 44.2329 134.621L46.7069 130.336C47.2399 129.414 46.9229 128.234 46.0009 127.702L43.4399 126.223C44.0279 124.336 44.3439 122.33 44.3439 120.25Z" stroke="white" stroke-width="3"/>
<path fill-rule="evenodd" clip-rule="evenodd" d="M92.8996 35.8341C92.8996 41.5411 88.2726 46.1671 82.5666 46.1671C76.8596 46.1671 72.2326 41.5411 72.2326 35.8341C72.2326 30.1271 76.8596 25.5011 82.5666 25.5011C88.2726 25.5011 92.8996 30.1271 92.8996 35.8341Z" stroke="white" stroke-width="3"/>
<path fill-rule="evenodd" clip-rule="evenodd" d="M92.8996 35.8341C92.8996 41.5411 88.2726 46.1671 82.5666 46.1671C76.8596 46.1671 72.2326 41.5411 72.2326 35.8341C72.2326 30.1271 76.8596 25.5011 82.5666 25.5011C88.2726 25.5011 92.8996 30.1271 92.8996 35.8341Z" stroke="white" stroke-width="3"/>
<path fill-rule="evenodd" clip-rule="evenodd" d="M102.621 35.8341C102.621 33.7541 102.304 31.7481 101.716 29.8611L104.277 28.3821C105.2 27.8501 105.516 26.6701 104.983 25.7481L102.51 21.4621C101.976 20.5411 100.798 20.2251 99.8753 20.7571L97.2893 22.2501C94.5773 19.3121 91.0093 17.1861 86.9693 16.2791V13.3051C86.9693 12.2401 86.1053 11.3771 85.0403 11.3771H80.0923C79.0273 11.3771 78.1643 12.2401 78.1643 13.3051V16.2791C74.1233 17.1861 70.5553 19.3121 67.8433 22.2501L65.2573 20.7571C64.3343 20.2251 63.1553 20.5411 62.6233 21.4621L60.1483 25.7481C59.6163 26.6701 59.9323 27.8501 60.8543 28.3821L63.4163 29.8611C62.8283 31.7481 62.5123 33.7541 62.5123 35.8341C62.5123 37.9141 62.8283 39.9201 63.4163 41.8071L60.8543 43.2861C59.9323 43.8181 59.6163 44.9981 60.1483 45.9191L62.6233 50.2051C63.1553 51.1271 64.3343 51.4431 65.2573 50.9111L67.8433 49.4181C70.5553 52.3561 74.1233 54.4821 78.1643 55.3881V58.3631C78.1643 59.4281 79.0273 60.2911 80.0923 60.2911H85.0403C86.1053 60.2911 86.9693 59.4281 86.9693 58.3631V55.3881C91.0093 54.4821 94.5773 52.3561 97.2893 49.4181L99.8753 50.9111C100.798 51.4431 101.976 51.1271 102.51 50.2051L104.983 45.9191C105.516 44.9981 105.2 43.8181 104.277 43.2861L101.716 41.8071C102.304 39.9201 102.621 37.9141 102.621 35.8341Z" stroke="white" stroke-width="3"/>
<path fill-rule="evenodd" clip-rule="evenodd" d="M205.789 74.75H378.289V32.75H205.789V74.75Z" stroke="white" stroke-width="3"/>
<path fill-rule="evenodd" clip-rule="evenodd" d="M230.039 1.50011V32.7501H378.289V43.5001H402.539V1.50011H230.039Z" stroke="white" stroke-width="3"/>
<path d="M244.539 11.7501H388.039" stroke="white" stroke-width="3"/>
<path d="M244.539 22.5001H388.039" stroke="white" stroke-width="3"/>
<path d="M220.789 42.0001H361.289" stroke="white" stroke-width="3"/>
<path d="M220.789 52.9166H361.289" stroke="white" stroke-width="3"/>
<path d="M220.789 63.8331H286.789" stroke="white" stroke-width="3"/>
<path fill-rule="evenodd" clip-rule="evenodd" d="M356.789 65.7501C356.789 67.6831 355.223 69.2501 353.289 69.2501C351.356 69.2501 349.789 67.6831 349.789 65.7501C349.789 63.8171 351.356 62.2501 353.289 62.2501C355.223 62.2501 356.789 63.8171 356.789 65.7501Z" stroke="#0085E7" stroke-width="3"/>
<path fill-rule="evenodd" clip-rule="evenodd" d="M370.472 65.7501C370.472 67.6831 368.906 69.2501 366.972 69.2501C365.039 69.2501 363.472 67.6831 363.472 65.7501C363.472 63.8171 365.039 62.2501 366.972 62.2501C368.906 62.2501 370.472 63.8171 370.472 65.7501Z" stroke="#0085E7" stroke-width="3"/>
<path fill-rule="evenodd" clip-rule="evenodd" d="M393.179 34.7501C393.179 36.6831 391.613 38.2501 389.679 38.2501C387.746 38.2501 386.179 36.6831 386.179 34.7501C386.179 32.8171 387.746 31.2501 389.679 31.2501C391.613 31.2501 393.179 32.8171 393.179 34.7501Z" stroke="#0085E7" stroke-width="3"/>
</g>
</svg>
