<svg width="484" height="353" viewBox="0 0 484 353" xmlns="http://www.w3.org/2000/svg" fill="none"><path d="M309.429 306.157l-128.574-148.847-169.74 183.586 143.24-53.586 234.5 28.5 84-98M441.355 256.06l-54.5-53.25-80.635 100.643" stroke="#fff" stroke-width="3"/><path fill-rule="evenodd" clip-rule="evenodd" d="M20.73 340.896c0 5.31-4.305 9.615-9.615 9.615-5.31 0-9.615-4.305-9.615-9.615 0-5.311 4.305-9.615 9.615-9.615 5.31 0 9.615 4.304 9.615 9.615z" fill="#131313"/><path fill-rule="evenodd" clip-rule="evenodd" d="M20.73 340.896c0 5.31-4.305 9.615-9.615 9.615-5.31 0-9.615-4.305-9.615-9.615 0-5.311 4.305-9.615 9.615-9.615 5.31 0 9.615 4.304 9.615 9.615z" stroke="#0085E7" stroke-width="3"/><path fill-rule="evenodd" clip-rule="evenodd" d="M166.23 286.896c0 5.31-4.305 9.615-9.615 9.615-5.31 0-9.615-4.305-9.615-9.615 0-5.311 4.305-9.615 9.615-9.615 5.31 0 9.615 4.304 9.615 9.615z" fill="#131313"/><path fill-rule="evenodd" clip-rule="evenodd" d="M166.23 286.896c0 5.31-4.305 9.615-9.615 9.615-5.31 0-9.615-4.305-9.615-9.615 0-5.311 4.305-9.615 9.615-9.615 5.31 0 9.615 4.304 9.615 9.615z" stroke="#0085E7" stroke-width="3"/><path fill-rule="evenodd" clip-rule="evenodd" d="M315.835 303.453c0 5.31-4.305 9.615-9.615 9.615-5.311 0-9.615-4.305-9.615-9.615 0-5.311 4.304-9.615 9.615-9.615 5.31 0 9.615 4.304 9.615 9.615z" fill="#131313"/><path fill-rule="evenodd" clip-rule="evenodd" d="M315.835 303.453c0 5.31-4.305 9.615-9.615 9.615-5.311 0-9.615-4.305-9.615-9.615 0-5.311 4.304-9.615 9.615-9.615 5.31 0 9.615 4.304 9.615 9.615z" stroke="#0085E7" stroke-width="3"/><path fill-rule="evenodd" clip-rule="evenodd" d="M397.16 316.572c0 5.31-4.305 9.615-9.615 9.615-5.311 0-9.615-4.305-9.615-9.615 0-5.311 4.304-9.615 9.615-9.615 5.31 0 9.615 4.304 9.615 9.615z" fill="#131313"/><path fill-rule="evenodd" clip-rule="evenodd" d="M397.16 316.572c0 5.31-4.305 9.615-9.615 9.615-5.311 0-9.615-4.305-9.615-9.615 0-5.311 4.304-9.615 9.615-9.615 5.31 0 9.615 4.304 9.615 9.615z" stroke="#0085E7" stroke-width="3"/><path fill-rule="evenodd" clip-rule="evenodd" d="M482.471 218.265c0 5.31-4.305 9.615-9.615 9.615-5.31 0-9.615-4.305-9.615-9.615 0-5.311 4.305-9.615 9.615-9.615 5.31 0 9.615 4.304 9.615 9.615z" fill="#131313"/><path fill-rule="evenodd" clip-rule="evenodd" d="M482.471 218.265c0 5.31-4.305 9.615-9.615 9.615-5.31 0-9.615-4.305-9.615-9.615 0-5.311 4.305-9.615 9.615-9.615 5.31 0 9.615 4.304 9.615 9.615z" stroke="#0085E7" stroke-width="3"/><path fill-rule="evenodd" clip-rule="evenodd" d="M447.061 152.906c0 8.461-6.859 15.32-15.32 15.32s-15.321-6.859-15.321-15.32 6.86-15.32 15.321-15.32c8.461 0 15.32 6.859 15.32 15.32zM330.098 178.217c0 8.461-6.859 15.32-15.32 15.32s-15.32-6.859-15.32-15.32 6.859-15.32 15.32-15.32 15.32 6.859 15.32 15.32zM266.906 16.82c0 8.461-6.859 15.32-15.32 15.32s-15.32-6.859-15.32-15.32 6.859-15.32 15.32-15.32 15.32 6.859 15.32 15.32zM65.044 198.827c0 8.461-6.859 15.32-15.32 15.32s-15.321-6.859-15.321-15.32 6.86-15.32 15.321-15.32c8.461 0 15.32 6.859 15.32 15.32z" stroke="#fff" stroke-width="3" stroke-dasharray="4.81 4.81"/><path d="M180.855 157.31v-96.28M226.904 210.62h-52.799" stroke="#fff" stroke-width="3"/><path fill-rule="evenodd" clip-rule="evenodd" d="M188.748 61.03c0 4.359-3.534 7.893-7.893 7.893-4.358 0-7.892-3.534-7.892-7.893s3.534-7.893 7.892-7.893c4.359 0 7.893 3.534 7.893 7.893z" fill="#131313"/><path fill-rule="evenodd" clip-rule="evenodd" d="M188.748 61.03c0 4.359-3.534 7.893-7.893 7.893-4.358 0-7.892-3.534-7.892-7.893s3.534-7.893 7.892-7.893c4.359 0 7.893 3.534 7.893 7.893z" stroke="#fff" stroke-width="3"/><path d="M131.566 210.62h10.852M355.704 241.179h10.128M426.125 241.179h-46.02" stroke="#fff" stroke-width="3"/><path fill-rule="evenodd" clip-rule="evenodd" d="M276.545 132.935h-74.435v-39.875h74.435l-24.959 19.938 24.959 19.937zM202.11 93.06h18.62v-18h-39.875v39.875h21.255v-21.875z" stroke="#0085E7" stroke-width="3"/><path d="M20.73 16.82h59.792M130.355 66.476h-49.833M67.355 66.476h-25.667M114.855 114.143h-65.667M431.74 21.81h-96.885M351.522 55.81h18.667M401.855 55.81h40.667M367.522 93.06h64.218" stroke="#fff" stroke-width="3"/></svg>