<svg xmlns="http://www.w3.org/2000/svg" viewBox="0 0 88 88"><defs><style>.cls-1,.cls-2,.cls-4{fill:none;}.cls-2{stroke:#333;}.cls-2,.cls-3,.cls-4{stroke-miterlimit:10;stroke-width:2px;}.cls-3{fill:#ef0c33;}.cls-3,.cls-4{stroke:#000;}</style></defs><title>Asset 2</title><g id="Layer_2" data-name="Layer 2"><g id="Layer_1-2" data-name="Layer 1"><rect class="cls-1" width="88" height="88"/><path class="cls-2" d="M16.7,9H46a0,0,0,0,1,0,0V54a0,0,0,0,1,0,0H16.7A15.7,15.7,0,0,1,1,38.3V24.7A15.7,15.7,0,0,1,16.7,9Z"/><path class="cls-3" d="M21,54H37a0,0,0,0,1,0,0V84a3,3,0,0,1-3,3H24a3,3,0,0,1-3-3V54A0,0,0,0,1,21,54Z"/><path class="cls-2" d="M37,64h3.77a3.22,3.22,0,0,0,3-1.85A2.81,2.81,0,0,0,44,61a2.93,2.93,0,0,0-.52-1.67,9,9,0,0,1-1.48-5V54"/><path class="cls-2" d="M46,54l36,8h2.36A2.64,2.64,0,0,0,87,59.36V3.64A2.64,2.64,0,0,0,84.36,1H82L46,9"/><line class="cls-2" x1="82" y1="1" x2="82" y2="62"/><circle class="cls-3" cx="10.5" cy="39.5" r="2.5"/><circle class="cls-3" cx="19.5" cy="29.5" r="2.5"/><circle class="cls-3" cx="28.5" cy="36.5" r="2.5"/><circle class="cls-3" cx="37.5" cy="23.5" r="2.5"/><line class="cls-4" x1="11.88" y1="37.42" x2="17.9" y2="31.39"/><line class="cls-4" x1="21" y1="31" x2="26" y2="35"/><line class="cls-4" x1="29.86" y1="34.4" x2="36.01" y2="25.49"/></g></g></svg>