<svg xmlns="http://www.w3.org/2000/svg" viewBox="0 0 88 88"><defs><style>.cls-1,.cls-2{fill:none;}.cls-2{stroke:#000;stroke-miterlimit:10;stroke-width:2px;}.cls-3{fill:#ef0c33;}.cls-4{fill:#fff;}</style></defs><title>Marketing &amp;amp; Analytics</title><g id="Layer_2" data-name="Layer 2"><g id="Layer_1-2" data-name="Layer 1"><rect class="cls-1" width="88" height="88"/><path d="M43.25,7A37.38,37.38,0,1,1,5.88,44.38,37.42,37.42,0,0,1,43.25,7m0,62.64A25.27,25.27,0,1,0,18,44.38,25.3,25.3,0,0,0,43.25,69.64M43.25,5A39.38,39.38,0,1,0,82.62,44.38,39.37,39.37,0,0,0,43.25,5Zm0,62.64A23.27,23.27,0,1,1,66.52,44.38,23.26,23.26,0,0,1,43.25,67.64Z"/><polyline class="cls-2" points="27.65 34 32.26 34 36.1 49.37 54.54 49.37 56.85 38.61 34.18 38.61"/><circle class="cls-2" cx="50.53" cy="54.32" r="2.61"/><circle class="cls-2" cx="39.2" cy="54.32" r="2.61"/><path class="cls-3" d="M66.4,43A24.33,24.33,0,0,0,45,21.27V1A43,43,0,0,1,87,43Z"/><path d="M46,2.05A42,42,0,0,1,86,42H67.29A25.36,25.36,0,0,0,46,20.39V2.05M44,0V22.18A23.25,23.25,0,0,1,65.47,44H88A44,44,0,0,0,44,0Z"/><path class="cls-3" d="M42.5,86.39a43.32,43.32,0,0,1-29.69-11.9L27.37,59.93a24.27,24.27,0,0,0,30.5.24L72.19,74.49A43.32,43.32,0,0,1,42.5,86.39Z"/><path d="M27.45,61.27a25.26,25.26,0,0,0,30.33.22l13,13a42,42,0,0,1-56.5,0l13.2-13.2m-.13-2.7L11.39,74.5a44,44,0,0,0,62.22,0L57.93,58.82a23.26,23.26,0,0,1-30.61-.25Z"/><rect class="cls-4" x="71.25" y="38" width="2" height="2"/><polygon points="73.25 38 71.25 38 71.25 40 73.25 40 73.25 38 73.25 38"/><rect class="cls-4" x="75.25" y="38" width="2" height="2"/><polygon points="77.25 38 75.25 38 75.25 40 77.25 40 77.25 38 77.25 38"/><rect class="cls-4" x="79.25" y="38" width="2" height="2"/><polygon points="81.25 38 79.25 38 79.25 40 81.25 40 81.25 38 81.25 38"/><polyline class="cls-2" points="62 21 73 6 88 6"/><polyline class="cls-2" points="26 72 15 87 0 87"/><rect x="86" y="9" width="2" height="2"/><rect x="76" y="9" width="8" height="2"/><rect x="10" y="82" width="2" height="2"/><rect y="82" width="8" height="2"/></g></g></svg>