<svg xmlns="http://www.w3.org/2000/svg" viewBox="0 0 88 88"><defs><style>.cls-1,.cls-2{fill:none;}.cls-2{stroke:#000;stroke-miterlimit:10;stroke-width:2px;}.cls-3{fill:#ef0c33;}</style></defs><title>Asset 3</title><g id="Layer_2" data-name="Layer 2"><g id="Layer_1-2" data-name="Layer 1"><rect class="cls-1" width="88" height="88"/><path class="cls-2" d="M17,69v3l-5.35,1.65A10.82,10.82,0,0,0,4,84H37v-.19a10.83,10.83,0,0,0-7.41-10.28L25,72V69"/><path class="cls-3" d="M21,46.44a11,11,0,0,0-11,11,11.16,11.16,0,0,0,.09,1.42H12V57H30v1.86h1.91A11.16,11.16,0,0,0,32,57.44,11,11,0,0,0,21,46.44Z"/><path class="cls-2" d="M14,62a3,3,0,0,1,0-6v7a7,7,0,0,0,7,7h0a7,7,0,0,0,7-7V56a3,3,0,0,1,0,6"/><line class="cls-2" x1="14" y1="56" x2="28" y2="56"/><path class="cls-2" d="M64,69v3l-5.35,1.65A10.82,10.82,0,0,0,51,84H84v-.19a10.83,10.83,0,0,0-7.41-10.28L72,72V69"/><path class="cls-3" d="M68,46.44a11,11,0,0,0-11,11,11.16,11.16,0,0,0,.09,1.42H59V57H77v1.86h1.91A11.16,11.16,0,0,0,79,57.44,11,11,0,0,0,68,46.44Z"/><path class="cls-2" d="M61,62a3,3,0,0,1,0-6v7a7,7,0,0,0,7,7h0a7,7,0,0,0,7-7V56a3,3,0,0,1,0,6"/><line class="cls-2" x1="61" y1="56" x2="75" y2="56"/><path class="cls-2" d="M33,17H8a4,4,0,0,0-4,4V33a4,4,0,0,0,4,4H20.5l.5,5,5-5h7a4,4,0,0,0,4-4V21A4,4,0,0,0,33,17Z"/><path class="cls-2" d="M55,17H80a4,4,0,0,1,4,4V33a4,4,0,0,1-4,4H67.5L67,42l-5-5H55a4,4,0,0,1-4-4V21A4,4,0,0,1,55,17Z"/><circle class="cls-3" cx="44" cy="16" r="16"/><path d="M42.81,25.15V23a9,9,0,0,1-3.81-1l.67-2.62a7.88,7.88,0,0,0,3.72,1c1.28,0,2.16-.5,2.16-1.39s-.72-1.39-2.38-2c-2.4-.81-4-1.93-4-4.11,0-2,1.39-3.52,3.79-4V6.85h2.2v2a8.08,8.08,0,0,1,3.25.75l-.65,2.53a7.37,7.37,0,0,0-3.23-.76c-1.45,0-1.93.62-1.93,1.25s.79,1.21,2.7,1.93c2.66.94,3.74,2.18,3.74,4.19s-1.41,3.7-4,4.15v2.29Z"/><line class="cls-2" x1="8" y1="22" x2="24" y2="22"/><line class="cls-2" x1="8" y1="27" x2="28" y2="27"/><line class="cls-2" x1="8" y1="32" x2="28" y2="32"/><line class="cls-2" x1="64" y1="22" x2="80" y2="22"/><line class="cls-2" x1="60" y1="27" x2="80" y2="27"/><line class="cls-2" x1="60" y1="32" x2="80" y2="32"/><line class="cls-2" x1="72" y1="72" x2="60.08" y2="83.92"/><line class="cls-2" x1="64.08" y1="72" x2="76" y2="83.92"/><line class="cls-2" x1="25" y1="72" x2="13.08" y2="83.92"/><line class="cls-2" x1="17.08" y1="72" x2="29" y2="83.92"/></g></g></svg>