<svg xmlns="http://www.w3.org/2000/svg" viewBox="0 0 88.21 88"><defs><style>.cls-1,.cls-2{fill:none;}.cls-2,.cls-3{stroke:#000;stroke-miterlimit:10;stroke-width:2px;}.cls-3,.cls-4{fill:#ef0c33;}</style></defs><title>Asset 4</title><g id="Layer_2" data-name="Layer 2"><g id="Layer_1-2" data-name="Layer 1"><rect class="cls-1" width="88" height="88"/><rect class="cls-2" x="4" y="10" width="80" height="74" rx="8" ry="8"/><rect class="cls-3" x="14" y="1" width="7" height="15" rx="3.5" ry="3.5"/><rect class="cls-3" x="67" y="1" width="7" height="15" rx="3.5" ry="3.5"/><rect class="cls-2" x="10" y="32" width="8" height="8"/><rect class="cls-2" x="25" y="32" width="8" height="8"/><rect class="cls-2" x="40" y="32" width="8" height="8"/><rect class="cls-2" x="55" y="32" width="8" height="8"/><rect class="cls-2" x="70" y="32" width="8" height="8"/><rect class="cls-2" x="10" y="49" width="8" height="8"/><rect class="cls-2" x="25" y="49" width="8" height="8"/><rect class="cls-2" x="40" y="49" width="8" height="8"/><rect class="cls-2" x="10" y="66" width="8" height="8"/><rect class="cls-2" x="25" y="66" width="8" height="8"/><rect class="cls-2" x="40" y="66" width="8" height="8"/><line class="cls-2" x1="4" y1="26" x2="84" y2="26"/><circle class="cls-4" cx="67" cy="62.5" r="12.5"/><polyline class="cls-2" points="61 61 66.5 66.5 87.5 45.5"/></g></g></svg>