<svg width="116" height="115" viewBox="0 0 116 115" xmlns="http://www.w3.org/2000/svg" fill="none"><path fill-rule="evenodd" clip-rule="evenodd" d="M23 95h65v-85h-65v85z" stroke="#131313" stroke-width="1.5"/><path d="M55 97.888v5.112h-40v-81h4.668M91 21h9v29" stroke="#131313" stroke-width="1.5"/><path fill-rule="evenodd" clip-rule="evenodd" d="M27 80h29v-29h-29v29z" stroke="#0085E7" stroke-width="1.5"/><path d="M63 52h21M63 59h21M63 66h21M63 73h21M63 80h21" stroke="#131313" stroke-width="1.5"/><path fill-rule="evenodd" clip-rule="evenodd" d="M27 44h57v-19h-57v19z" stroke="#131313" stroke-width="1.5"/><path d="M27 21h50M27 16h28M27 89h57" stroke="#131313" stroke-width="1.5"/><path fill-rule="evenodd" clip-rule="evenodd" d="M111 96.5c0 2.485-2.015 4.5-4.499 4.5-2.486 0-4.501-2.014-4.501-4.5s2.015-4.5 4.501-4.5c2.484 0 4.499 2.014 4.499 4.5zM111 96.5c0 2.485-2.015 4.5-4.499 4.5-2.486 0-4.501-2.014-4.501-4.5s2.015-4.5 4.501-4.5c2.484 0 4.499 2.014 4.499 4.5zM113.902 96.5c0-.893-.133-1.754-.379-2.564l1.073-.635c.386-.228.519-.735.296-1.131l-1.037-1.839c-.223-.396-.717-.532-1.104-.303l-1.083.641c-1.137-1.261-2.631-2.174-4.324-2.563v-1.277c0-.457-.361-.828-.807-.828h-2.074c-.445 0-.807.371-.807.828v1.277c-1.693.389-3.188 1.302-4.324 2.563l-1.083-.641c-.387-.229-.88-.093-1.104.303l-1.036 1.839c-.224.396-.091.902.296 1.131l1.073.635c-.246.81-.379 1.671-.379 2.564s.133 1.754.379 2.564l-1.073.635c-.387.229-.519.735-.296 1.131l1.036 1.84c.224.396.717.531 1.104.303l1.083-.641c1.136 1.261 2.631 2.174 4.324 2.563v1.277c0 .457.362.828.807.828h2.074c.446 0 .807-.371.807-.828v-1.277c1.693-.389 3.187-1.302 4.324-2.563l1.083.641c.387.228.881.093 1.104-.303l1.037-1.84c.223-.396.09-.902-.296-1.131l-1.073-.635c.246-.81.379-1.671.379-2.564z" stroke="#0085E7" stroke-width="1.5"/><path fill-rule="evenodd" clip-rule="evenodd" d="M13 10c0 1.657-1.343 3-3 3s-3-1.343-3-3 1.343-3 3-3 3 1.343 3 3zM13 10c0 1.657-1.343 3-3 3s-3-1.343-3-3 1.343-3 3-3 3 1.343 3 3zM16.191 10.5c0-.638-.098-1.253-.279-1.832l.791-.454c.285-.163.382-.524.218-.808l-.764-1.314c-.164-.283-.528-.38-.813-.216l-.798.458c-.838-.901-1.938-1.553-3.186-1.831v-.912c0-.326-.266-.591-.595-.591h-1.528c-.328 0-.595.265-.595.591v.912c-1.247.278-2.349.93-3.186 1.831l-.798-.458c-.285-.163-.648-.066-.812.216l-.764 1.314c-.164.283-.066.645.218.808l.79.454c-.181.578-.279 1.193-.279 1.832 0 .638.098 1.253.279 1.831l-.79.454c-.285.163-.383.525-.218.808l.764 1.314c.164.283.528.38.812.216l.798-.457c.837.901 1.939 1.553 3.186 1.831v.912c0 .327.266.591.595.591h1.528c.329 0 .595-.265.595-.591v-.912c1.247-.278 2.348-.929 3.186-1.831l.798.457c.285.164.649.067.813-.216l.764-1.314c.164-.283.067-.644-.218-.808l-.791-.454c.181-.578.279-1.193.279-1.831z" stroke="#131313" stroke-width="1.5"/><path fill-rule="evenodd" clip-rule="evenodd" d="M102 57.5c0 2.485-2.015 4.5-4.5 4.5s-4.5-2.015-4.5-4.5 2.015-4.5 4.5-4.5 4.5 2.015 4.5 4.5zM100 5.5c0 2.485-2.015 4.5-4.5 4.5-2.486 0-4.5-2.015-4.5-4.5s2.014-4.5 4.5-4.5c2.485 0 4.5 2.015 4.5 4.5zM10 54.5c0 2.485-2.015 4.5-4.5 4.5-2.486 0-4.5-2.015-4.5-4.5s2.014-4.5 4.5-4.5c2.485 0 4.5 2.015 4.5 4.5zM10 109.5c0 2.485-2.015 4.5-4.5 4.5s-4.5-2.015-4.5-4.5 2.015-4.5 4.5-4.5 4.5 2.015 4.5 4.5z" stroke="#131313" stroke-width="1.5" stroke-dasharray="2 2"/></svg>