<svg width="102" height="113" viewBox="0 0 102 113" xmlns="http://www.w3.org/2000/svg" fill="none"><path fill-rule="evenodd" clip-rule="evenodd" d="M51.5 102c-8.561 0-15.5-7.002-15.5-15.641v-20.359h31v20.359c0 8.639-6.94 15.641-15.5 15.641z" stroke="#131313"/><path d="M36 65l15.499-19 15.501 19M35.653 76l-11.653 20h16M67.348 76l11.652 20h-16" stroke="#131313"/><path fill-rule="evenodd" clip-rule="evenodd" d="M51.5 90c-3.037 0-5.5-2.49-5.5-5.561v-8.439h11v8.439c0 3.072-2.463 5.561-5.5 5.561z" stroke="#0085E7"/><path d="M28 99v6M28 108v4M34 104v8M40 102v7M65 100v4M65 108v4M71 102v8M77 100v5" stroke="#0085E7"/><mask id="a" maskUnits="userSpaceOnUse" x="77" y="110" width="1" height="3"><path fill-rule="evenodd" clip-rule="evenodd" d="M77.204 110.299h.5v2.701h-.5v-2.701z" fill="#fff"/></mask><path d="M77.204 110.299v2.701" stroke="#0085E7" mask="url(#a)"/><path d="M36 69h18M59 69h9M72 93h5M33 93h-6M15 37v27h10M91 27v37h-12" stroke="#131313" stroke-width="1.5"/><path fill-rule="evenodd" clip-rule="evenodd" d="M26 15.5c0 5.799-4.701 10.5-10.5 10.5s-10.5-4.701-10.5-10.5 4.701-10.5 10.5-10.5 10.5 4.701 10.5 10.5z" stroke="#0085E7" stroke-width="1.5"/><path fill-rule="evenodd" clip-rule="evenodd" d="M30 15c0 7.732-6.492 14-14.5 14s-14.5-6.268-14.5-14 6.492-14 14.5-14c8.009 0 14.5 6.268 14.5 14zM14.287 20v-1.281c-.902-.041-1.776-.283-2.287-.58l.403-1.577c.565.31 1.359.593 2.233.593.767 0 1.292-.296 1.292-.836 0-.512-.431-.836-1.426-1.173-1.44-.485-2.422-1.159-2.422-2.466 0-1.186.834-2.117 2.274-2.4v-1.281h1.319v1.186c.901.041 1.507.23 1.95.445l-.39 1.523c-.35-.148-.968-.459-1.937-.459-.875 0-1.158.377-1.158.755 0 .444.471.728 1.615 1.159 1.601.566 2.247 1.308 2.247 2.522 0 1.199-.848 2.223-2.395 2.493v1.375h-1.319zM67 22h28v-14h-28v14z" stroke="#131313" stroke-width="1.5"/><path fill-rule="evenodd" clip-rule="evenodd" d="M41 37.5c0 2.485-2.015 4.5-4.5 4.5-2.486 0-4.5-2.015-4.5-4.5s2.014-4.5 4.5-4.5c2.485 0 4.5 2.015 4.5 4.5zM84 50.5c0 2.485-2.015 4.5-4.5 4.5-2.486 0-4.5-2.015-4.5-4.5s2.014-4.5 4.5-4.5c2.485 0 4.5 2.015 4.5 4.5zM13 77.5c0 2.485-2.015 4.5-4.5 4.5-2.486 0-4.5-2.015-4.5-4.5s2.014-4.5 4.5-4.5c2.485 0 4.5 2.015 4.5 4.5zM91 86.5c0 2.485-2.015 4.5-4.5 4.5s-4.5-2.015-4.5-4.5 2.015-4.5 4.5-4.5 4.5 2.015 4.5 4.5z" stroke="#131313" stroke-width="1.5" stroke-dasharray="2 2"/><path fill-rule="evenodd" clip-rule="evenodd" d="M90.535 10h-19.07c0 1.28-1.103 2.317-2.465 2.317v5.366c1.362 0 2.465 1.038 2.465 2.317h19.07c0-1.279 1.103-2.317 2.465-2.317v-5.366c-1.362 0-2.465-1.037-2.465-2.317z" stroke="#0085E7" stroke-width="1.5"/><path fill-rule="evenodd" clip-rule="evenodd" d="M70 5v2.544h25.395v11.456h2.605v-14h-28zM73 3v2.544h25.395v11.456h2.605v-14h-28z" stroke="#131313" stroke-width="1.5"/></svg>