<svg xmlns="http://www.w3.org/2000/svg" viewBox="0 0 88 88"><defs><style>.cls-1{fill:none;stroke:#ef0c33;stroke-miterlimit:10;}</style></defs><title>Asset 7</title><g id="Layer_2" data-name="Layer 2"><g id="Layer_1-2" data-name="Layer 1"><path d="M44,1A43,43,0,1,1,1,44,43,43,0,0,1,44,1m0-1A44,44,0,1,0,88,44,44,44,0,0,0,44,0Z"/><circle class="cls-1" cx="44" cy="24.82" r="2.32"/><path class="cls-1" d="M40.14,31a3.86,3.86,0,0,1,7.72,0Z"/><circle class="cls-1" cx="44" cy="58.82" r="2.32"/><path class="cls-1" d="M40.14,65a3.86,3.86,0,0,1,7.72,0Z"/><circle class="cls-1" cx="62" cy="41.82" r="2.32"/><path class="cls-1" d="M58.14,48a3.86,3.86,0,0,1,7.72,0Z"/><circle class="cls-1" cx="61" cy="27.82" r="2.32"/><path class="cls-1" d="M57.14,34a3.86,3.86,0,0,1,7.72,0Z"/><circle class="cls-1" cx="27" cy="27.82" r="2.32"/><path class="cls-1" d="M23.14,34a3.86,3.86,0,0,1,7.72,0Z"/><circle class="cls-1" cx="61" cy="55.82" r="2.32"/><path class="cls-1" d="M57.14,62a3.86,3.86,0,0,1,7.72,0Z"/><circle class="cls-1" cx="27" cy="55.82" r="2.32"/><path class="cls-1" d="M23.14,62a3.86,3.86,0,0,1,7.72,0Z"/><circle class="cls-1" cx="26" cy="41.82" r="2.32"/><path class="cls-1" d="M22.14,48a3.86,3.86,0,0,1,7.72,0Z"/><line class="cls-1" x1="44" y1="50.44" x2="44" y2="56.5"/><line class="cls-1" x1="44" y1="31.25" x2="44" y2="37.31"/><line class="cls-1" x1="27" y1="44.14" x2="37.63" y2="44.14"/><line class="cls-1" x1="50.37" y1="44.14" x2="61" y2="44.14"/><line class="cls-1" x1="49.37" y1="40.45" x2="58.79" y2="34"/><line class="cls-1" x1="28.87" y1="53.89" x2="38.55" y2="47.25"/><line class="cls-1" x1="38.55" y1="40.57" x2="28.53" y2="34"/><line class="cls-1" x1="59.13" y1="54.27" x2="49.21" y2="47.78"/><circle class="cls-1" cx="44" cy="44" r="6.44"/></g></g></svg>