<svg xmlns="http://www.w3.org/2000/svg" viewBox="0 0 88 88"><defs><style>.cls-1{fill:none;stroke:#ef0c33;stroke-miterlimit:10;}</style></defs><title>Asset 6</title><g id="Layer_2" data-name="Layer 2"><g id="Layer_2-2" data-name="Layer 2"><path d="M44,1A43,43,0,1,1,1,44,43,43,0,0,1,44,1m0-1A44,44,0,1,0,88,44,44,44,0,0,0,44,0Z"/><path class="cls-1" d="M44.2,65.25A21.63,21.63,0,1,1,44.2,22"/><path class="cls-1" d="M44.2,65.25c-6.62,0-12-11.35-12-21.63,0-9.82,5.36-21.62,12-21.62Z"/><path class="cls-1" d="M28.2,29.35A55.74,55.74,0,0,0,44.2,36"/><path class="cls-1" d="M28.2,58.11a56,56,0,0,1,16-6.68"/><line class="cls-1" x1="44.2" y1="43.62" x2="22.57" y2="43.62"/><path class="cls-1" d="M44.2,39v10.1a5.05,5.05,0,0,0,0-10.1Z"/><path class="cls-1" d="M44.2,33.86V54.14a10.14,10.14,0,0,0,0-20.28Z"/><path class="cls-1" d="M61.08,46.77V41.23H57.41a12.86,12.86,0,0,0-1.95-4.57L58.1,34,54.18,30.1l-2.74,2.74A12.88,12.88,0,0,0,47,31.14v-4H44.2V60.89H47v-4a12.88,12.88,0,0,0,4.47-1.7l2.74,2.74L58.1,54l-2.64-2.64a12.86,12.86,0,0,0,1.95-4.57Z"/></g></g></svg>