<svg width="88" height="88" viewBox="0 0 88 88" fill="none" xmlns="http://www.w3.org/2000/svg">
<path fill-rule="evenodd" clip-rule="evenodd" d="M0 44.0002C0 19.6997 19.6995 0.000244141 44 0.000244141C55.6695 0.000244141 66.8611 4.63595 75.1127 12.8875C83.3643 21.1391 88 32.3307 88 44.0002C88 68.3008 68.3005 88.0002 44 88.0002C19.6995 88.0002 0 68.3008 0 44.0002ZM87 44.0002C87 20.252 67.7482 1.00024 44 1.00024C20.2518 1.00024 1 20.252 1 44.0002C1 67.7485 20.2518 87.0002 44 87.0002C67.7482 87.0002 87 67.7485 87 44.0002Z" fill="black"/>
<path d="M56.16 43.0701V61.6001H33.39L22 50.2101L27.18 36.7501L42.71 26.4001L51.51 26.9201V34.1601H44.26L43.26 32.0901L34.78 47.4801C34.73 47.5901 34.86 47.7001 34.94 47.6101C36.94 45.7301 44.23 39.7401 53.06 45.0401" stroke="#EF0C33"/>
<path d="M50.47 47.6201C54.2414 43.0269 60.1014 40.6836 66 41.4101" stroke="#EF0C33"/>
<path d="M36.27 53.6702C37.3591 54.9687 38.9465 55.746 40.64 55.8102H46.43" stroke="#EF0C33"/>
</svg>
