<svg width="88" height="88" viewBox="0 0 88 88" fill="none" xmlns="http://www.w3.org/2000/svg">
<path fill-rule="evenodd" clip-rule="evenodd" d="M49.5 37.5002H39.5C38.3954 37.5002 37.5 38.3957 37.5 39.5002V49.5002C37.5 50.6048 38.3954 51.5002 39.5 51.5002H49.5C50.6046 51.5002 51.5 50.6048 51.5 49.5002V39.5002C51.5 38.3957 50.6046 37.5002 49.5 37.5002ZM38.5 39.5002C38.5 38.948 38.9477 38.5002 39.5 38.5002H49.5C50.0523 38.5002 50.5 38.948 50.5 39.5002V49.5002C50.5 50.0525 50.0523 50.5002 49.5 50.5002H39.5C38.9477 50.5002 38.5 50.0525 38.5 49.5002V39.5002Z" fill="#EF0C33"/>
<path fill-rule="evenodd" clip-rule="evenodd" d="M46.5 40.5002H42.5C41.3954 40.5002 40.5 41.3957 40.5 42.5002V46.5002C40.5 47.6048 41.3954 48.5002 42.5 48.5002H46.5C47.6046 48.5002 48.5 47.6048 48.5 46.5002V42.5002C48.5 41.3957 47.6046 40.5002 46.5 40.5002ZM41.5 42.5002C41.5 41.948 41.9477 41.5002 42.5 41.5002H46.5C47.0523 41.5002 47.5 41.948 47.5 42.5002V46.5002C47.5 47.0525 47.0523 47.5002 46.5 47.5002H42.5C41.9477 47.5002 41.5 47.0525 41.5 46.5002V42.5002Z" fill="#EF0C33"/>
<path d="M48.94 37.5002V34.5002" stroke="#EF0C33"/>
<path d="M37.5 40.4702H34.5" stroke="#EF0C33"/>
<path fill-rule="evenodd" clip-rule="evenodd" d="M35 40.4702C35 39.3656 34.1046 38.4702 33 38.4702C31.8954 38.4702 31 39.3656 31 40.4702C31 41.5748 31.8954 42.4702 33 42.4702C34.1046 42.4702 35 41.5748 35 40.4702ZM32 40.4702C32 39.9179 32.4477 39.4702 33 39.4702C33.5523 39.4702 34 39.9179 34 40.4702C34 41.0225 33.5523 41.4702 33 41.4702C32.4477 41.4702 32 41.0225 32 40.4702Z" fill="#EF0C33"/>
<path d="M40.5 51.5002V53.5002" stroke="#EF0C33"/>
<path fill-rule="evenodd" clip-rule="evenodd" d="M42.5 55.0002C42.5 53.8957 41.6046 53.0002 40.5 53.0002C39.3954 53.0002 38.5 53.8957 38.5 55.0002C38.5 56.1048 39.3954 57.0002 40.5 57.0002C41.6046 57.0002 42.5 56.1048 42.5 55.0002ZM39.5 55.0002C39.5 54.448 39.9477 54.0002 40.5 54.0002C41.0523 54.0002 41.5 54.448 41.5 55.0002C41.5 55.5525 41.0523 56.0002 40.5 56.0002C39.9477 56.0002 39.5 55.5525 39.5 55.0002Z" fill="#EF0C33"/>
<path d="M51.5 48.5603H53.5" stroke="#EF0C33"/>
<path fill-rule="evenodd" clip-rule="evenodd" d="M57 48.5903C57 47.4858 56.1046 46.5903 55 46.5903C53.8954 46.5903 53 47.4858 53 48.5903C53 49.6949 53.8954 50.5903 55 50.5903C56.1046 50.5903 57 49.6949 57 48.5903ZM54.2431 48.5603C54.2431 48.1017 54.5551 47.7018 55 47.5903C55.4449 47.7018 55.7569 48.1017 55.7569 48.5603C55.7569 49.019 55.4449 49.4188 55 49.5303C54.5551 49.4188 54.2431 49.019 54.2431 48.5603Z" fill="#EF0C33"/>
<path fill-rule="evenodd" clip-rule="evenodd" d="M30.5 22.0002H24C22.8954 22.0002 22 22.8957 22 24.0002V30.5002C22 31.6048 22.8954 32.5002 24 32.5002H30.5C31.6046 32.5002 32.5 31.6048 32.5 30.5002V24.0002C32.5 22.8957 31.6046 22.0002 30.5 22.0002ZM23 24.0002C23 23.448 23.4477 23.0002 24 23.0002H30.5C31.0523 23.0002 31.5 23.448 31.5 24.0002V30.5002C31.5 31.0525 31.0523 31.5002 30.5 31.5002H24C23.4477 31.5002 23 31.0525 23 30.5002V24.0002Z" fill="#EF0C33"/>
<path fill-rule="evenodd" clip-rule="evenodd" d="M28.5 24.0002H26C24.8954 24.0002 24 24.8957 24 26.0002V28.5002C24 29.6048 24.8954 30.5002 26 30.5002H28.5C29.6046 30.5002 30.5 29.6048 30.5 28.5002V26.0002C30.5 24.8957 29.6046 24.0002 28.5 24.0002ZM25 26.0002C25 25.448 25.4477 25.0002 26 25.0002H28.5C29.0523 25.0002 29.5 25.448 29.5 26.0002V28.5002C29.5 29.0525 29.0523 29.5002 28.5 29.5002H26C25.4477 29.5002 25 29.0525 25 28.5002V26.0002Z" fill="#EF0C33"/>
<path fill-rule="evenodd" clip-rule="evenodd" d="M64 22.0002H57.5C56.3954 22.0002 55.5 22.8957 55.5 24.0002V30.5002C55.5 31.6048 56.3954 32.5002 57.5 32.5002H64C65.1046 32.5002 66 31.6048 66 30.5002V24.0002C66 22.8957 65.1046 22.0002 64 22.0002ZM56.5 24.0002C56.5 23.448 56.9477 23.0002 57.5 23.0002H64C64.5523 23.0002 65 23.448 65 24.0002V30.5002C65 31.0525 64.5523 31.5002 64 31.5002H57.5C56.9477 31.5002 56.5 31.0525 56.5 30.5002V24.0002Z" fill="#EF0C33"/>
<path fill-rule="evenodd" clip-rule="evenodd" d="M61.5 24.5002H60C58.8954 24.5002 58 25.3957 58 26.5002V28.0002C58 29.1048 58.8954 30.0002 60 30.0002H61.5C62.6046 30.0002 63.5 29.1048 63.5 28.0002V26.5002C63.5 25.3957 62.6046 24.5002 61.5 24.5002ZM59 26.5002C59 25.948 59.4477 25.5002 60 25.5002H61.5C62.0523 25.5002 62.5 25.948 62.5 26.5002V28.0002C62.5 28.5525 62.0523 29.0002 61.5 29.0002H60C59.4477 29.0002 59 28.5525 59 28.0002V26.5002Z" fill="#EF0C33"/>
<path fill-rule="evenodd" clip-rule="evenodd" d="M30.5 55.5002H24C22.8954 55.5002 22 56.3957 22 57.5002V64.0002C22 65.1048 22.8954 66.0002 24 66.0002H30.5C31.6046 66.0002 32.5 65.1048 32.5 64.0002V57.5002C32.5 56.3957 31.6046 55.5002 30.5 55.5002ZM23 57.5002C23 56.948 23.4477 56.5002 24 56.5002H30.5C31.0523 56.5002 31.5 56.948 31.5 57.5002V64.0002C31.5 64.5525 31.0523 65.0002 30.5 65.0002H24C23.4477 65.0002 23 64.5525 23 64.0002V57.5002Z" fill="#EF0C33"/>
<path fill-rule="evenodd" clip-rule="evenodd" d="M28.5 57.5002H26C24.8954 57.5002 24 58.3957 24 59.5002V62.0002C24 63.1048 24.8954 64.0002 26 64.0002H28.5C29.6046 64.0002 30.5 63.1048 30.5 62.0002V59.5002C30.5 58.3957 29.6046 57.5002 28.5 57.5002ZM25 59.5002C25 58.948 25.4477 58.5002 26 58.5002H28.5C29.0523 58.5002 29.5 58.948 29.5 59.5002V62.0002C29.5 62.5525 29.0523 63.0002 28.5 63.0002H26C25.4477 63.0002 25 62.5525 25 62.0002V59.5002Z" fill="#EF0C33"/>
<path fill-rule="evenodd" clip-rule="evenodd" d="M64 55.5002H57.5C56.3954 55.5002 55.5 56.3957 55.5 57.5002V64.0002C55.5 65.1048 56.3954 66.0002 57.5 66.0002H64C65.1046 66.0002 66 65.1048 66 64.0002V57.5002C66 56.3957 65.1046 55.5002 64 55.5002ZM56.5 57.5002C56.5 56.948 56.9477 56.5002 57.5 56.5002H64C64.5523 56.5002 65 56.948 65 57.5002V64.0002C65 64.5525 64.5523 65.0002 64 65.0002H57.5C56.9477 65.0002 56.5 64.5525 56.5 64.0002V57.5002Z" fill="#EF0C33"/>
<path fill-rule="evenodd" clip-rule="evenodd" d="M61.5 58.0002H60C58.8954 58.0002 58 58.8957 58 60.0002V61.5002C58 62.6048 58.8954 63.5002 60 63.5002H61.5C62.6046 63.5002 63.5 62.6048 63.5 61.5002V60.0002C63.5 58.8957 62.6046 58.0002 61.5 58.0002ZM59 60.0002C59 59.448 59.4477 59.0002 60 59.0002H61.5C62.0523 59.0002 62.5 59.448 62.5 60.0002V61.5002C62.5 62.0525 62.0523 62.5002 61.5 62.5002H60C59.4477 62.5002 59 62.0525 59 61.5002V60.0002Z" fill="#EF0C33"/>
<path d="M44 37.5002V29.2502C44 28.1457 43.1046 27.2502 42 27.2502H32.5" stroke="#EF0C33"/>
<path d="M44.5 51.5002V58.7502C44.5 59.8548 45.3954 60.7502 46.5 60.7502H55.95" stroke="#EF0C33"/>
<path d="M51.5 44.5001H58.75C59.8546 44.5001 60.75 43.6047 60.75 42.5001V32.3801" stroke="#EF0C33"/>
<path d="M37.5 44.5002H29.25C28.1454 44.5002 27.25 45.3957 27.25 46.5002V56.1302" stroke="#EF0C33"/>
<path fill-rule="evenodd" clip-rule="evenodd" d="M51 33.0002C51 31.8957 50.1046 31.0002 49 31.0002C47.8954 31.0002 47 31.8957 47 33.0002C47 34.1048 47.8954 35.0002 49 35.0002C50.1046 35.0002 51 34.1048 51 33.0002ZM48 33.0002C48 32.448 48.4477 32.0002 49 32.0002C49.5523 32.0002 50 32.448 50 33.0002C50 33.5525 49.5523 34.0002 49 34.0002C48.4477 34.0002 48 33.5525 48 33.0002Z" fill="#EF0C33"/>
<path fill-rule="evenodd" clip-rule="evenodd" d="M0 44.0002C0 19.6997 19.6995 0.000244141 44 0.000244141C55.6695 0.000244141 66.8611 4.63595 75.1127 12.8875C83.3643 21.1391 88 32.3307 88 44.0002C88 68.3008 68.3005 88.0002 44 88.0002C19.6995 88.0002 0 68.3008 0 44.0002ZM87 44.0002C87 20.252 67.7482 1.00024 44 1.00024C20.2518 1.00024 1 20.252 1 44.0002C1 67.7485 20.2518 87.0002 44 87.0002C67.7482 87.0002 87 67.7485 87 44.0002Z" fill="black"/>
</svg>
