<svg xmlns="http://www.w3.org/2000/svg" viewBox="0 0 191.01 46.93"><defs><style>.cls-1{fill:#1e1e1e;}.cls-2{fill:#ef0c33;}</style></defs><title>Asset 1</title><g id="Layer_2" data-name="Layer 2"><g id="Layer_8" data-name="Layer 8"><path class="cls-1" d="M0,46.42V0H17.44c9.82,0,16.42,6.27,16.42,15.59s-6.6,15.6-16.42,15.6h-7V46.42ZM17.24,21.13c3.54,0,5.92-2.22,5.92-5.54s-2.32-5.47-5.92-5.47H10.44v11Z"/><polygon class="cls-1" points="84.28 46.42 84.28 0 94.72 0 94.72 36.36 112.94 36.36 112.94 46.42 84.28 46.42"/><polygon class="cls-1" points="120.35 46.42 120.35 0 130.79 0 130.79 36.36 149 36.36 149 46.42 120.35 46.42"/><path class="cls-2" d="M178.27,46.42l-7.49-15.23h-4.62l-1.33,15.23H154.39L158.45,0H175.8c5,0,9,1.57,11.75,4.53a14.37,14.37,0,0,1,3.39,11.15,16.43,16.43,0,0,1-9.24,13.74l8.32,17Zm-4.51-25.29a6.08,6.08,0,0,0,6.43-5.62,4.87,4.87,0,0,0-1.12-3.83,5.47,5.47,0,0,0-4.17-1.56H168l-1,11Z"/><path class="cls-1" d="M58.28,46.93c-10.94,0-18-7.44-18-19V0H50.71V27.78c0,5.41,2.83,8.65,7.57,8.65s7.57-3.23,7.57-8.65V0H76.28V28C76.28,39.48,69.21,46.93,58.28,46.93Z"/></g></g></svg>