<svg width="380" height="47" fill="none" xmlns="http://www.w3.org/2000/svg"><path d="M31.214 4.16c1.504 0 2.736-.048 3.696-.144v.96c-.832.416-1.68 1.168-2.544 2.256-.832 1.088-1.584 2.576-2.256 4.464L20.75 38a42.173 42.173 0 0 0-2.544-.096c-.64 0-1.472.032-2.496.096L3.134 8.048c-.416-1.024-.88-1.776-1.392-2.256-.48-.512-.96-.784-1.44-.816v-.96c2.304.096 5.216.144 8.736.144 3.648 0 6.336-.048 8.064-.144v.96c-1.216.064-2.08.208-2.592.432s-.768.672-.768 1.344c0 .544.192 1.296.576 2.256l8.304 20.448L27.278 16.4c1.056-2.944 1.584-5.312 1.584-7.104 0-2.784-1.312-4.224-3.936-4.32v-.96c2.4.096 4.496.144 6.288.144zm17.747 29.28c2.336 0 4.272-1.072 5.808-3.216l.816.288a13.25 13.25 0 0 1-3.6 5.76c-1.664 1.6-3.808 2.4-6.432 2.4-3.36 0-6.048-1.04-8.064-3.12s-3.024-5.408-3.024-9.984c0-4.384 1.12-7.664 3.36-9.84 2.272-2.208 5.264-3.312 8.976-3.312 6.048 0 9.072 3.584 9.072 10.752H43.489c-.032.384-.048.96-.048 1.728 0 3.072.528 5.264 1.584 6.576 1.088 1.312 2.4 1.968 3.936 1.968zm-2.496-19.92c-1.792 0-2.848 2.912-3.168 8.736h5.568c.032-2.56-.16-4.656-.576-6.288-.384-1.632-.992-2.448-1.824-2.448zm32.151-1.104c2.56 0 4.368.64 5.424 1.92.48.576.832 1.36 1.056 2.352.224.96.336 2.24.336 3.84v13.008c0 1.312.192 2.224.576 2.736.416.48 1.12.72 2.112.72V38c-3.456-.128-5.696-.192-6.72-.192-1.088 0-3.36.064-6.816.192v-1.008c.832 0 1.408-.24 1.728-.72.32-.512.48-1.424.48-2.736v-15.6c0-1.024-.192-1.776-.576-2.256-.352-.512-.944-.768-1.776-.768-.928 0-1.744.336-2.448 1.008-.672.64-1.008 1.456-1.008 2.448v15.168c0 1.312.16 2.224.48 2.736.32.48.896.72 1.728.72V38c-3.2-.128-5.312-.192-6.336-.192-1.088 0-3.488.064-7.2.192v-1.008c.992 0 1.68-.24 2.064-.72.416-.512.624-1.424.624-2.736V18.32c0-1.472-.208-2.544-.624-3.216-.384-.672-1.072-1.008-2.064-1.008v-1.008c1.024.096 2.016.144 2.976.144 3.328 0 6.112-.224 8.352-.672v3.456c1.44-2.4 3.984-3.6 7.632-3.6zm24.128.672h4.704v.96h-4.704v19.92c0 .64.112 1.088.336 1.344.224.256.592.384 1.104.384.384 0 .816-.112 1.296-.336.48-.224.912-.576 1.296-1.056l.72.576c-1.472 2.528-3.744 3.792-6.816 3.792-2.208 0-3.856-.544-4.944-1.632-.672-.672-1.12-1.504-1.344-2.496-.192-.992-.288-2.384-.288-4.176v-16.32h-3.648v-.96h3.648V7.424c1.728 0 3.28-.16 4.656-.48a14.933 14.933 0 0 0 3.984-1.632v7.776zm32.99 19.68c0 1.472.192 2.544.576 3.216.416.672 1.12 1.008 2.112 1.008V38a30.878 30.878 0 0 0-2.976-.144c-3.328 0-6.112.224-8.352.672v-3.456c-1.44 2.4-3.984 3.6-7.632 3.6-2.56 0-4.368-.64-5.424-1.92-.48-.576-.832-1.344-1.056-2.304-.224-.992-.336-2.288-.336-3.888V18.32c0-1.472-.208-2.544-.624-3.216-.384-.672-1.072-1.008-2.064-1.008v-1.008c.992.096 1.984.144 2.976.144 3.328 0 6.112-.224 8.352-.672v20.592c0 1.024.176 1.792.528 2.304.384.48.992.72 1.824.72a3.36 3.36 0 0 0 2.4-.96c.704-.672 1.056-1.504 1.056-2.496v-14.4c0-1.472-.208-2.544-.624-3.216-.384-.672-1.072-1.008-2.064-1.008v-1.008c.992.096 1.984.144 2.976.144 3.328 0 6.112-.224 8.352-.672v20.208zm24.083-20.352c1.568 0 2.688.48 3.36 1.44.704.96 1.056 2.096 1.056 3.408 0 1.44-.416 2.592-1.248 3.456-.8.832-1.856 1.248-3.168 1.248-1.376 0-2.432-.304-3.168-.912-.736-.64-1.104-1.488-1.104-2.544 0-1.888.816-3.376 2.448-4.464-.576 0-1.088.112-1.536.336-.8.352-1.472.928-2.016 1.728a4.303 4.303 0 0 0-.816 2.544v14.4c0 1.504.304 2.544.912 3.12.64.544 1.712.816 3.216.816V38c-.416 0-.768-.016-1.056-.048-3.36-.096-5.6-.144-6.72-.144-.992 0-3.216.048-6.672.144a8.467 8.467 0 0 1-1.008.048v-1.008c.992 0 1.68-.24 2.064-.72.416-.512.624-1.424.624-2.736V18.32c0-1.472-.208-2.544-.624-3.216-.384-.672-1.072-1.008-2.064-1.008v-1.008c1.024.096 2.016.144 2.976.144 3.328 0 6.112-.224 8.352-.672v3.456c1.216-2.4 3.28-3.6 6.192-3.6zm22.097 21.024c2.336 0 4.272-1.072 5.808-3.216l.816.288a13.25 13.25 0 0 1-3.6 5.76c-1.664 1.6-3.808 2.4-6.432 2.4-3.36 0-6.048-1.04-8.064-3.12s-3.024-5.408-3.024-9.984c0-4.384 1.12-7.664 3.36-9.84 2.272-2.208 5.264-3.312 8.976-3.312 6.048 0 9.072 3.584 9.072 10.752h-12.384c-.032.384-.048.96-.048 1.728 0 3.072.528 5.264 1.584 6.576 1.088 1.312 2.4 1.968 3.936 1.968zm-2.496-19.92c-1.792 0-2.848 2.912-3.168 8.736h5.568c.032-2.56-.16-4.656-.576-6.288-.384-1.632-.992-2.448-1.824-2.448zM224.63 3.344c1.92 0 3.552.272 4.896.816 1.344.544 2.656 1.312 3.936 2.304.32.288.624.432.912.432.64 0 1.056-.96 1.248-2.88h1.104c-.128 2.272-.192 6.272-.192 12h-1.104c-.224-2.56-.64-4.576-1.248-6.048-.608-1.472-1.664-2.704-3.168-3.696-1.504-.96-2.992-1.44-4.464-1.44-3.328 0-5.664 1.6-7.008 4.8-1.344 3.2-2.016 7.024-2.016 11.472 0 4.448.672 8.272 2.016 11.472 1.344 3.2 3.68 4.8 7.008 4.8 1.472 0 2.96-.48 4.464-1.44 1.504-.928 2.56-2.176 3.168-3.744.608-1.568 1.024-3.792 1.248-6.672h1.104c0 5.984.064 10.144.192 12.48h-1.104c-.096-1.024-.24-1.744-.432-2.16-.16-.448-.4-.672-.72-.672-.256 0-.592.128-1.008.384-1.44 1.024-2.816 1.808-4.128 2.352-1.312.512-2.896.768-4.752.768-3.616 0-6.784-.688-9.504-2.064-2.72-1.376-4.832-3.36-6.336-5.952-1.504-2.624-2.256-5.744-2.256-9.36 0-3.52.768-6.64 2.304-9.36 1.536-2.72 3.68-4.832 6.432-6.336 2.752-1.504 5.888-2.256 9.408-2.256zm23.782 34.992c-2.048 0-3.6-.544-4.656-1.632-1.024-1.12-1.536-2.512-1.536-4.176 0-1.44.368-2.624 1.104-3.552.768-.96 1.664-1.696 2.688-2.208 1.024-.512 2.352-1.04 3.984-1.584 1.728-.576 2.992-1.104 3.792-1.584.8-.48 1.2-1.152 1.2-2.016v-4.272c0-1.024-.256-1.936-.768-2.736-.512-.8-1.392-1.2-2.64-1.2-.992 0-1.888.272-2.688.816 1.088.384 1.888.96 2.4 1.728.544.736.816 1.568.816 2.496 0 1.248-.448 2.256-1.344 3.024-.864.736-1.92 1.104-3.168 1.104-1.248 0-2.24-.384-2.976-1.152-.704-.8-1.056-1.808-1.056-3.024 0-.96.24-1.792.72-2.496s1.232-1.344 2.256-1.92c1.792-1.024 4.352-1.536 7.68-1.536 1.76 0 3.28.176 4.56.528 1.28.32 2.368.944 3.264 1.872.64.672 1.056 1.52 1.248 2.544.224.992.336 2.384.336 4.176V34.4c0 .8.048 1.344.144 1.632.128.288.336.432.624.432.224 0 .464-.064.72-.192a5.95 5.95 0 0 0 .72-.528l.48.816c-1.376 1.184-3.344 1.776-5.904 1.776-1.92 0-3.264-.32-4.032-.96-.768-.672-1.184-1.568-1.248-2.688-1.504 2.432-3.744 3.648-6.72 3.648zm4.8-3.84c.672 0 1.264-.272 1.776-.816V23.552c-.288.48-.816 1.104-1.584 1.872-.864.832-1.52 1.648-1.968 2.448-.448.768-.672 1.824-.672 3.168 0 2.304.816 3.456 2.448 3.456zm34.94-22.08c2.496 0 4.512 1.024 6.048 3.072 1.536 2.048 2.304 5.04 2.304 8.976 0 5.088-1.024 8.736-3.072 10.944-2.048 2.176-4.752 3.264-8.112 3.264-1.856 0-3.344-.304-4.464-.912v3.984c0 1.472.336 2.496 1.008 3.072.704.576 1.744.864 3.12.864v1.008l-1.392-.048c-3.84-.096-6.32-.144-7.44-.144-.96 0-3.168.064-6.624.192V45.68c.992 0 1.68-.256 2.064-.768.416-.48.624-1.376.624-2.688V18.368c0-1.472-.208-2.544-.624-3.216-.384-.672-1.072-1.008-2.064-1.008v-1.008c.992.096 1.984.144 2.976.144 3.328 0 6.112-.224 8.352-.672v3.408c1.472-2.4 3.904-3.6 7.296-3.6zm-5.616 24.816c1.76 0 3.024-.944 3.792-2.832.8-1.92 1.2-4.864 1.2-8.832 0-3.936-.288-6.688-.864-8.256-.576-1.6-1.36-2.4-2.352-2.4-.928 0-1.744.336-2.448 1.008-.672.64-1.008 1.456-1.008 2.448v18.48c.416.256.976.384 1.68.384zM307.783.464c1.664 0 2.944.352 3.84 1.056.928.704 1.392 1.728 1.392 3.072s-.464 2.368-1.392 3.072c-.896.704-2.176 1.056-3.84 1.056-1.696 0-2.992-.352-3.888-1.056-.896-.704-1.344-1.728-1.344-3.072s.448-2.368 1.344-3.072c.896-.704 2.192-1.056 3.888-1.056zm4.608 33.072c0 1.312.192 2.224.576 2.736.416.48 1.12.72 2.112.72V38c-3.456-.128-5.728-.192-6.816-.192s-3.488.064-7.2.192v-1.008c.992 0 1.68-.24 2.064-.72.416-.512.624-1.424.624-2.736V18.32c0-1.472-.208-2.544-.624-3.216-.384-.672-1.072-1.008-2.064-1.008v-1.008c1.024.096 2.016.144 2.976.144 3.328 0 6.112-.224 8.352-.672v20.976zm17.603-20.448h4.704v.96h-4.704v19.92c0 .64.112 1.088.336 1.344.224.256.592.384 1.104.384.384 0 .816-.112 1.296-.336.48-.224.912-.576 1.296-1.056l.72.576c-1.472 2.528-3.744 3.792-6.816 3.792-2.208 0-3.856-.544-4.944-1.632-.672-.672-1.12-1.504-1.344-2.496-.192-.992-.288-2.384-.288-4.176v-16.32h-3.648v-.96h3.648V7.424c1.728 0 3.28-.16 4.656-.48a14.93 14.93 0 0 0 3.984-1.632v7.776zm13.934 25.248c-2.048 0-3.6-.544-4.656-1.632-1.024-1.12-1.536-2.512-1.536-4.176 0-1.44.368-2.624 1.104-3.552.768-.96 1.664-1.696 2.688-2.208 1.024-.512 2.352-1.04 3.984-1.584 1.728-.576 2.992-1.104 3.792-1.584.8-.48 1.2-1.152 1.2-2.016v-4.272c0-1.024-.256-1.936-.768-2.736-.512-.8-1.392-1.2-2.64-1.2-.992 0-1.888.272-2.688.816 1.088.384 1.888.96 2.4 1.728.544.736.816 1.568.816 2.496 0 1.248-.448 2.256-1.344 3.024-.864.736-1.92 1.104-3.168 1.104-1.248 0-2.24-.384-2.976-1.152-.704-.8-1.056-1.808-1.056-3.024 0-.96.24-1.792.72-2.496s1.232-1.344 2.256-1.92c1.792-1.024 4.352-1.536 7.68-1.536 1.76 0 3.28.176 4.56.528 1.28.32 2.368.944 3.264 1.872.64.672 1.056 1.52 1.248 2.544.224.992.336 2.384.336 4.176V34.4c0 .8.048 1.344.144 1.632.128.288.336.432.624.432.224 0 .464-.064.72-.192a5.95 5.95 0 0 0 .72-.528l.48.816c-1.376 1.184-3.344 1.776-5.904 1.776-1.92 0-3.264-.32-4.032-.96-.768-.672-1.184-1.568-1.248-2.688-1.504 2.432-3.744 3.648-6.72 3.648zm4.8-3.84c.672 0 1.264-.272 1.776-.816V23.552c-.288.48-.816 1.104-1.584 1.872-.864.832-1.52 1.648-1.968 2.448-.448.768-.672 1.824-.672 3.168 0 2.304.816 3.456 2.448 3.456zm27.644-.96c0 1.312.192 2.224.576 2.736.416.48 1.12.72 2.112.72V38c-3.456-.128-5.728-.192-6.816-.192s-3.488.064-7.2.192v-1.008c.992 0 1.68-.24 2.064-.72.416-.512.624-1.424.624-2.736V6.224c0-1.472-.208-2.544-.624-3.216-.384-.672-1.072-1.008-2.064-1.008V.992c.992.096 1.984.144 2.976.144 3.328 0 6.112-.224 8.352-.672v33.072z" fill="#1A1A1A"/></svg>