<svg width="96" height="30" viewBox="0 0 96 30" fill="none" xmlns="http://www.w3.org/2000/svg">
<path fill-rule="evenodd" clip-rule="evenodd" d="M0 8.33105V29.7557H4.81846V22.7264H8.04923C12.5815 22.7264 15.6231 19.828 15.6231 15.5264C15.6231 11.2249 12.5815 8.33105 8.04923 8.33105H0ZM10.6892 15.5264C10.6892 17.0587 9.59077 18.0834 7.95692 18.0834L4.81846 18.0787V13.0018H7.95692C9.61846 13.0018 10.6892 13.9941 10.6892 15.5264Z" fill="white"/>
<path d="M38.8985 29.7557V8.33105H43.7169V25.1126H52.1262V29.7557H38.8985Z" fill="white"/>
<path d="M55.5461 29.7557V8.33105H60.3646V25.1126H68.7692V29.7557H55.5461Z" fill="white"/>
<path fill-rule="evenodd" clip-rule="evenodd" d="M78.8215 22.7264L82.2784 29.7557H87.7015L83.8615 21.9095C86.3222 20.7188 87.9515 18.296 88.1261 15.568C88.353 13.7088 87.7849 11.8401 86.5615 10.4218C85.2923 9.05567 83.4461 8.33105 81.1384 8.33105H73.1307L71.2569 29.7557H76.08L76.6938 22.7264H78.8215ZM83.1646 15.4895C83.0537 17.0215 81.7299 18.1785 80.1969 18.0834L77.0769 18.0787L77.5384 13.0018H80.7231C81.4378 12.9569 82.1379 13.2188 82.6477 13.7218C83.0656 14.2096 83.2539 14.8534 83.1646 15.4895Z" fill="#CC9E49"/>
<path d="M26.8985 29.9999C21.8492 29.9999 18.5908 26.5615 18.5908 21.2307V8.30762H23.4046V21.1522C23.4046 23.6492 24.7108 25.1399 26.8985 25.1399C29.0861 25.1399 30.3877 23.6492 30.3877 21.1522V8.33069H35.2061V21.2307C35.2061 26.5522 31.9431 29.9999 26.8985 29.9999Z" fill="white"/>
<path fill-rule="evenodd" clip-rule="evenodd" d="M89.6584 8.45994C90.4754 8.12301 91.3477 6.68301 91.32 6.2907C92.1138 5.94917 92.9492 4.70763 92.9354 4.18609C93.7015 3.81686 94.2969 2.60763 94.2323 2.2707C94.8323 1.77224 95.8846 0.35532 95.4877 0.0460888C95.0907 -0.263142 93.9415 1.1907 93.9415 1.1907C93.3307 1.43298 92.8288 1.88897 92.5292 2.47378C91.3938 2.6584 90.8307 3.99686 90.8307 3.99686C89.9798 4.32011 89.3078 4.99206 88.9846 5.84301C88.2402 6.10138 87.5949 6.58537 87.1384 7.22763C86.5615 8.00301 86.2154 8.81532 86.94 9.4707L87.5123 10.0015C87.9507 10.3892 88.4354 10.2092 88.8507 9.83532C89.26 9.47492 89.5431 8.99291 89.6584 8.45994ZM93.96 1.46301C93.96 1.52464 94.0027 1.59816 94.0489 1.67766C94.1377 1.83038 94.2393 2.00514 94.0754 2.15993C94.0754 2.07467 94.0231 2.01615 93.9691 1.95567C93.9179 1.89829 93.8651 1.83916 93.8538 1.75378C93.8379 1.70426 93.8379 1.651 93.8538 1.60147C93.8714 1.54404 93.9091 1.49487 93.96 1.46301ZM92.82 3.26301C92.693 3.09174 92.6221 2.8854 92.6169 2.67224C92.291 2.96367 92.4779 3.25935 92.6473 3.52751C92.7274 3.65431 92.8037 3.77496 92.82 3.88609C92.9454 3.69732 92.9454 3.45178 92.82 3.26301ZM90.8861 4.26455C90.8808 4.5963 90.9846 4.92062 91.1815 5.18763C91.3573 5.46021 91.3573 5.81043 91.1815 6.08301C91.1631 5.85032 91.0493 5.6806 90.9343 5.50916C90.876 5.42216 90.8174 5.33473 90.7707 5.2384C90.5801 4.92599 90.6278 4.52376 90.8861 4.26455ZM89.224 7.54853C89.2669 7.61214 89.3095 7.67544 89.3492 7.73993C89.4387 7.87987 89.4911 8.04029 89.5015 8.20609C89.7335 7.83666 89.7171 7.36314 89.46 7.0107C89.4286 6.94955 89.3946 6.88892 89.3602 6.82774C89.2935 6.70886 89.2256 6.58789 89.1738 6.45686C89.1263 6.30788 89.1137 6.14996 89.1369 5.99532C88.8196 6.31642 88.7661 6.81403 89.0077 7.19532C89.0699 7.31971 89.1473 7.4346 89.224 7.54853Z" fill="#CC9E49"/>
</svg>
