<svg width="108" height="26" viewBox="0 0 108 26" xmlns="http://www.w3.org/2000/svg" fill="none"><path fill-rule="evenodd" clip-rule="evenodd" d="M105.996 2.544c1.521 1.721 2.226 3.99 1.942 6.248-.222 3.306-2.244 6.24-5.293 7.682l4.755 9.526h-6.72l-4.291-8.534h-2.641l-.762 8.534h-5.987l2.326-26h9.939c2.847 0 5.173.863 6.731 2.544zm-7.899 9.302c1.903.112 3.545-1.294 3.683-3.155.115-.765-.11-1.543-.619-2.135-.632-.611-1.501-.929-2.389-.874h-3.947l-.573 6.164h3.844z" fill="#151DC4"/><path fill-rule="evenodd" clip-rule="evenodd" d="M0 0v26h5.86v-8.523h3.929c5.512 0 9.211-3.508 9.211-8.736 0-5.228-3.699-8.741-9.211-8.741h-9.789zm13 8.741c0 1.855-1.336 3.104-3.323 3.104l-3.817-.006v-6.164h3.817c2.021 0 3.323 1.21 3.323 3.065z" fill="#1A1A1A"/><path d="M33 26c-6.078 0-10-4.116-10-10.511v-15.489h5.794v15.406c0 2.998 1.572 4.785 4.206 4.785 2.633 0 4.2-1.787 4.2-4.785v-15.368h5.8v15.489c0 6.356-3.928 10.472-10 10.472zM47 26v-26h5.828v20.364h10.172v5.636h-16zM68 26v-26h5.83v20.364h10.17v5.636h-16z" fill="#1A1A1A"/></svg>