<svg width="78" height="18" viewBox="0 0 78 18" fill="none" xmlns="http://www.w3.org/2000/svg">
<path d="M5.144 17H0.296V0.991999H8.84C10.648 0.991999 12.056 1.52 13.064 2.576C14.088 3.616 14.6 4.92 14.6 6.488C14.6 8.04 14.088 9.344 13.064 10.4C12.056 11.44 10.648 11.96 8.84 11.96H5.144V17ZM8.216 7.736C8.648 7.736 9 7.632 9.272 7.424C9.544 7.2 9.68 6.888 9.68 6.488C9.68 6.072 9.544 5.76 9.272 5.552C9 5.328 8.648 5.216 8.216 5.216H5.144V7.736H8.216ZM30.5106 15.416C29.1826 16.664 27.2146 17.288 24.6066 17.288C21.9986 17.288 20.0226 16.664 18.6786 15.416C17.3506 14.152 16.6866 12.488 16.6866 10.424V0.991999H21.6066V10.256C21.6066 11.056 21.8626 11.72 22.3746 12.248C22.9026 12.76 23.6466 13.016 24.6066 13.016C25.5506 13.016 26.2786 12.76 26.7906 12.248C27.3186 11.72 27.5826 11.056 27.5826 10.256V0.991999H32.5026V10.4C32.5026 12.48 31.8386 14.152 30.5106 15.416ZM46.5051 17H35.5851V0.991999H40.4331V12.776H46.5051V17ZM59.8723 17H48.9523V0.991999H53.8003V12.776H59.8723V17Z" fill="white"/>
<path d="M75.3514 17H70.0234L68.9194 11.96H66.9754L65.8714 17H61.0234L64.5514 0.991999H72.3274C73.8314 0.991999 75.1034 1.44 76.1434 2.336C77.1834 3.232 77.7034 4.4 77.7034 5.84C77.7034 7.2 77.3194 8.4 76.5514 9.44C75.7994 10.48 74.8714 11.2 73.7674 11.6L75.3514 17ZM70.7914 7.736H70.8634C71.4074 7.736 71.8474 7.624 72.1834 7.4C72.5194 7.16 72.6874 6.816 72.6874 6.368C72.6874 6.032 72.5594 5.76 72.3034 5.552C72.0474 5.328 71.7274 5.216 71.3434 5.216H68.4634L67.9114 7.736H70.7914Z" fill="#151DC4"/>
</svg>
