<svg width="105" height="26" viewBox="0 0 105 26" fill="none" xmlns="http://www.w3.org/2000/svg">
<path fill-rule="evenodd" clip-rule="evenodd" d="M0 0V26H5.85997V17.4696H9.78907C15.301 17.4696 19 13.9522 19 8.73201C19 3.51185 15.301 0 9.78907 0H0ZM12.9997 8.73201C12.9997 10.5916 11.6638 11.835 9.67681 11.835L5.85997 11.8294V5.66825H9.67681C11.6975 5.66825 12.9997 6.87247 12.9997 8.73201Z" fill="#1A1A1A"/>
<path d="M32 26C25.9222 26 22 21.8726 22 15.4737V0H27.7944V15.3906C27.7944 18.3878 29.3667 20.1773 32 20.1773C34.6333 20.1773 36.2 18.3878 36.2 15.3906V0H42V15.5125C42 21.8726 38.0722 26 32 26Z" fill="#1A1A1A"/>
<path d="M47 26V0H52.8283V20.3654H63V26H47Z" fill="#1A1A1A"/>
<path d="M66 26V0H71.8304V20.3654H82V26H66Z" fill="#1A1A1A"/>
<path fill-rule="evenodd" clip-rule="evenodd" d="M93.9426 17.4696L98.0292 26H104.44L99.9006 16.4782C102.81 15.0333 104.736 12.093 104.942 8.78242C105.21 6.52615 104.539 4.25843 103.092 2.53727C101.592 0.879362 99.4096 0 96.6815 0H87.2152L85 26H90.7016L91.4273 17.4696H93.9426ZM99.0768 8.6872C98.9456 10.5463 97.3808 11.9504 95.5685 11.835L91.8802 11.8294L92.4258 5.66825H96.1905C97.0355 5.61371 97.863 5.93153 98.4657 6.54201C98.9598 7.13395 99.1823 7.91525 99.0768 8.6872Z" fill="#EF0C33"/>
</svg>
