<svg width="112" height="35" viewBox="0 0 112 35" fill="none" xmlns="http://www.w3.org/2000/svg">
<path fill-rule="evenodd" clip-rule="evenodd" d="M0 9.71875V34.7141H5.62154V26.5134H9.39077C14.6785 26.5134 18.2269 23.1318 18.2269 18.1134C18.2269 13.0949 14.6785 9.71875 9.39077 9.71875H0ZM12.4708 18.1134C12.4708 19.9011 11.1892 21.0964 9.28308 21.0964L5.62154 21.0911V15.168H9.28308C11.2215 15.168 12.4708 16.3257 12.4708 18.1134Z" fill="#1E1E1E"/>
<path d="M45.3815 34.7141V9.71875H51.0031V29.2972H60.8138V34.7141H45.3815Z" fill="#1E1E1E"/>
<path d="M64.8038 34.7141V9.71875H70.4254V29.2972H80.2308V34.7141H64.8038Z" fill="#1E1E1E"/>
<path fill-rule="evenodd" clip-rule="evenodd" d="M91.9584 26.5134L95.9915 34.7141H102.318L97.8384 25.5603C100.709 24.1712 102.61 21.3445 102.814 18.1618C103.079 15.9927 102.416 13.8126 100.988 12.158C99.5077 10.5641 97.3538 9.71875 94.6615 9.71875H85.3192L83.1331 34.7141H88.76L89.4761 26.5134H91.9584ZM97.0254 18.0703C96.896 19.8576 95.3516 21.2074 93.5631 21.0964L89.9231 21.0911L90.4615 15.168H94.1769C95.0108 15.1156 95.8275 15.4211 96.4223 16.008C96.9099 16.577 97.1295 17.3282 97.0254 18.0703Z" fill="#CC9E49"/>
<path d="M31.3815 35.0001C25.4908 35.0001 21.6892 30.9885 21.6892 24.7693V9.69238H27.3054V24.6778C27.3054 27.5908 28.8292 29.3301 31.3815 29.3301C33.9339 29.3301 35.4523 27.5908 35.4523 24.6778V9.71931H41.0739V24.7693C41.0739 30.9778 37.2669 35.0001 31.3815 35.0001Z" fill="#1E1E1E"/>
<path fill-rule="evenodd" clip-rule="evenodd" d="M104.602 9.87041C105.555 9.47734 106.572 7.79734 106.54 7.33964C107.466 6.94118 108.441 5.49272 108.425 4.88426C109.318 4.45349 110.013 3.04272 109.938 2.64964C110.638 2.0681 111.865 0.415028 111.402 0.0542585C110.939 -0.306511 109.598 1.38964 109.598 1.38964C108.886 1.6723 108.3 2.20429 107.951 2.88657C106.626 3.10195 105.969 4.66349 105.969 4.66349C104.976 5.04062 104.193 5.82456 103.815 6.81734C102.947 7.11876 102.194 7.68342 101.662 8.43272C100.988 9.33734 100.585 10.285 101.43 11.0496L102.098 11.6689C102.609 12.1212 103.175 11.9112 103.659 11.475C104.137 11.0546 104.467 10.4922 104.602 9.87041ZM109.62 1.70734C109.62 1.77923 109.67 1.86501 109.724 1.95776C109.827 2.13593 109.946 2.33981 109.755 2.52041C109.755 2.42094 109.694 2.35266 109.631 2.2821C109.571 2.21517 109.509 2.14618 109.496 2.04657C109.478 1.98879 109.478 1.92665 109.496 1.86887C109.517 1.80186 109.561 1.7445 109.62 1.70734ZM108.29 3.80734C108.142 3.60752 108.059 3.36678 108.053 3.1181C107.673 3.4581 107.891 3.80307 108.089 4.11592C108.182 4.26385 108.271 4.4046 108.29 4.53426C108.436 4.31403 108.436 4.02757 108.29 3.80734ZM106.034 4.9758C106.028 5.36284 106.149 5.74121 106.378 6.05272C106.584 6.37074 106.584 6.77932 106.378 7.09734C106.357 6.82587 106.224 6.62785 106.09 6.42784C106.022 6.32634 105.954 6.22433 105.899 6.11195C105.677 5.74748 105.732 5.27821 106.034 4.9758ZM104.095 8.80711C104.145 8.88131 104.194 8.95517 104.241 9.03041C104.345 9.19367 104.406 9.38083 104.418 9.57426C104.689 9.14325 104.67 8.59082 104.37 8.17964C104.333 8.10829 104.294 8.03756 104.254 7.96619C104.176 7.82749 104.097 7.68636 104.036 7.53349C103.981 7.35968 103.966 7.17544 103.993 6.99503C103.623 7.36965 103.56 7.95019 103.842 8.39503C103.915 8.54015 104.005 8.67419 104.095 8.80711Z" fill="#CC9E49"/>
</svg>
