<svg width="103" height="25" viewBox="0 0 103 25" xmlns="http://www.w3.org/2000/svg" fill="none"><path fill-rule="evenodd" clip-rule="evenodd" d="M0 0v24.691h5.553v-8.101h3.723c5.223 0 8.734-3.34 8.734-8.298 0-4.957-3.511-8.292-8.734-8.292h-9.277zm12.319 8.293c0 1.766-1.266 2.947-3.149 2.947l-3.617-.005v-5.851h3.617c1.915 0 3.149 1.144 3.149 2.91z" fill="#fff"/><path d="M31 24.963c-5.819 0-9.575-3.958-9.575-10.106v-14.856h5.548v14.777c0 2.878 1.505 4.601 4.027 4.601 2.521 0 4.027-1.718 4.027-4.601v-14.777h5.548v14.894c0 6.106-3.761 10.069-9.575 10.069zM44.83 24.692v-24.692h5.553v19.34h9.691v5.351h-15.245zM64.016 24.692v-24.692h5.553v19.34h9.686v5.351h-15.239z" fill="#fff"/><path fill-rule="evenodd" clip-rule="evenodd" d="M91.372 16.59l3.984 8.101h6.25l-4.425-9.043c2.836-1.372 4.714-4.164 4.915-7.309.263-2.143-.392-4.297-1.803-5.931-1.463-1.574-3.591-2.41-6.25-2.41h-9.229l-2.159 24.691h5.553l.707-8.101h2.457zm5.005-8.34c-.131 1.764-1.654 3.096-3.42 2.989l-3.596-.005.532-5.851h3.67c.824-.05 1.63.251 2.218.83.481.563.697 1.304.596 2.037z" fill="#EF0C33"/></svg>